<?xml version="1.0" encoding="UTF-8"?>
<svg version="1.1" xmlns="http://www.w3.org/2000/svg" width="500" height="500">
<path d="M0 0 C1.80791016 0.51626953 1.80791016 0.51626953 3.65234375 1.04296875 C33.65157745 10.22505465 61.47512269 27.2518426 84 49 C84.6290625 49.60328125 85.258125 50.2065625 85.90625 50.828125 C95.09814987 59.68208738 103.67498659 68.52662727 111 79 C111.40234863 79.5686377 111.80469727 80.13727539 112.21923828 80.72314453 C145.41562184 127.88606266 159.71157559 186.52307809 149.92578125 243.60546875 C148.78332948 249.77656217 147.45422297 255.89531586 146 262 C145.81598633 262.77601563 145.63197266 263.55203125 145.44238281 264.3515625 C136.48467919 300.77845338 115.88319922 332.59334139 90.36621094 359.5546875 C89.2183849 360.76897094 88.08063815 361.99277097 86.9453125 363.21875 C80.90795425 369.54113374 73.96217117 374.7499603 67 380 C66.44038574 380.42571289 65.88077148 380.85142578 65.30419922 381.29003906 C20.56390697 415.11967772 -36.6563882 429.50060463 -92.18261719 422.39794922 C-140.43288885 415.58270287 -181.77311282 394.22369388 -217 361 C-217.73347656 360.3090625 -218.46695313 359.618125 -219.22265625 358.90625 C-224.63228814 353.65793914 -229.36780668 347.93851688 -234 342 C-234.64026123 341.18233154 -234.64026123 341.18233154 -235.29345703 340.34814453 C-257.34575198 311.95833447 -272.77430364 277.6430096 -278 242 C-278.26055176 240.28937378 -278.26055176 240.28937378 -278.52636719 238.54418945 C-280.0219387 227.86658195 -280.39924536 217.33654722 -280.375 206.5625 C-280.37478851 205.68937164 -280.37457703 204.81624329 -280.37435913 203.91665649 C-280.3391709 189.29753088 -279.23855874 175.29469801 -276 161 C-275.73509766 159.76926758 -275.73509766 159.76926758 -275.46484375 158.51367188 C-264.30132794 107.61630905 -232.3704948 59.15717684 -189 30 C-188.3095459 29.52916992 -187.6190918 29.05833984 -186.90771484 28.57324219 C-171.08982905 17.84083367 -154.94905526 9.58774106 -137 3 C-136.2373584 2.71882324 -135.4747168 2.43764648 -134.68896484 2.14794922 C-120.51835112 -2.96484034 -105.85617616 -5.67895683 -91 -8 C-90.27055176 -8.1141626 -89.54110352 -8.2283252 -88.78955078 -8.34594727 C-59.33018363 -12.26375393 -28.25894193 -8.53803885 0 0 Z M-191.21484375 89.90234375 C-219.96694538 121.14111363 -236.53584693 162.57142679 -236.3125 205 C-236.31067719 205.72133118 -236.30885437 206.44266235 -236.30697632 207.18585205 C-236.25556698 219.31879092 -235.50736245 231.10559045 -233 243 C-232.75854248 244.16813232 -232.75854248 244.16813232 -232.51220703 245.35986328 C-223.05727438 289.31031392 -195.22206746 328.02354381 -157.70654297 352.49609375 C-117.91865587 377.58500604 -71.06479976 385.59627125 -25.2265625 375.51171875 C1.15855777 369.32528483 25.44658613 357.80104366 46 340 C46.79277344 339.31679688 47.58554687 338.63359375 48.40234375 337.9296875 C50.97614255 335.66084117 53.49506915 333.3446451 56 331 C56.94875 330.11699219 57.8975 329.23398437 58.875 328.32421875 C82.75654104 305.59387841 97.23410349 275.70602029 105 244 C105.17934082 243.29713867 105.35868164 242.59427734 105.54345703 241.87011719 C115.81397998 200.03328985 104.71690118 152.27784537 83 116 C75.76478819 104.69108451 67.37905518 94.57358373 58 85 C57.05060547 83.99259766 57.05060547 83.99259766 56.08203125 82.96484375 C27.79191523 53.46517408 -15.19076087 35.69713857 -55.80078125 34.796875 C-108.38493887 34.24537836 -154.27706469 52.09416047 -191.21484375 89.90234375 Z " fill="#1149A1" transform="translate(314,43)"/>
<path d="M0 0 C0.66725098 0.31308105 1.33450195 0.62616211 2.02197266 0.94873047 C37.14715426 17.6914678 63.6455876 49.62663564 77.20703125 85.68359375 C86.59036143 112.28048136 88.54013065 143.52663349 82 171 C81.72591309 172.16837402 81.72591309 172.16837402 81.44628906 173.36035156 C74.88457094 200.15672756 61.16870136 223.37557914 42 243 C40.83791016 244.25490234 40.83791016 244.25490234 39.65234375 245.53515625 C18.04483242 268.29699205 -12.18412551 282.29252211 -43 287 C-44.74410156 287.27457031 -44.74410156 287.27457031 -46.5234375 287.5546875 C-85.18878724 292.18842514 -126.46540809 282.67576625 -157.3359375 258.43359375 C-159.19516116 256.91351982 -161.04029934 255.37585355 -162.86328125 253.8125 C-165.06970547 251.87031105 -165.06970547 251.87031105 -168 250 C-168 249.34 -168 248.68 -168 248 C-168.54398438 247.78859375 -169.08796875 247.5771875 -169.6484375 247.359375 C-172.85786597 245.50409077 -175.15454005 242.96491803 -177.625 240.25 C-178.15134033 239.67290283 -178.67768066 239.09580566 -179.2199707 238.5012207 C-205.7216789 208.89200249 -219.62821828 169.67710872 -218 130 C-216.90160499 110.93436307 -212.97607587 92.40063722 -205 75 C-204.70222656 74.34692871 -204.40445313 73.69385742 -204.09765625 73.02099609 C-199.61690841 63.3088357 -194.44716486 54.56281482 -188 46 C-187.32582031 45.10152344 -186.65164062 44.20304687 -185.95703125 43.27734375 C-170.7755553 23.93733968 -152.37697015 9.13011486 -130 -1 C-129.1853125 -1.39445312 -128.370625 -1.78890625 -127.53125 -2.1953125 C-87.64208203 -21.09801523 -39.31739752 -18.70611363 0 0 Z M30 40 C14.68063314 45.15777678 -0.30972415 54.42947199 -13 64.34375 C-13.969375 65.0965625 -14.93875 65.849375 -15.9375 66.625 C-17.21947266 67.66527344 -17.21947266 67.66527344 -18.52734375 68.7265625 C-21 70 -21 70 -23.4765625 69.390625 C-24.30929687 68.93171875 -25.14203125 68.4728125 -26 68 C-26.86496094 67.54882812 -27.72992188 67.09765625 -28.62109375 66.6328125 C-29.55050781 66.13523437 -30.47992188 65.63765625 -31.4375 65.125 C-41.93638041 59.8562367 -52.32044613 57.56973433 -64 57 C-64 61.29 -64 65.58 -64 70 C-66.31 70 -68.62 70 -71 70 C-71 65.71 -71 61.42 -71 57 C-95.64101781 59.55835704 -114.13994496 69.06031577 -130.3125 87.75 C-140.6735814 101.33794361 -146.22946003 117.019958 -146 134 C-142.37 134 -138.74 134 -135 134 C-135 136.31 -135 138.62 -135 141 C-138.63 141 -142.26 141 -146 141 C-146.91838139 159.06150073 -138.71810263 176.65635014 -126.75 189.9375 C-112.52090151 205.44535734 -96.55578681 213.20280099 -76 217 C-74.35 217 -72.7 217 -71 217 C-71 213.04 -71 209.08 -71 205 C-68.69 205 -66.38 205 -64 205 C-64 208.96 -64 212.92 -64 217 C-42.09361098 216.16811181 -22.79297284 207.45970758 -7.6015625 191.4765625 C4.96440816 176.85200279 12.27418647 160.3550275 13 141 C8.71 141 4.42 141 0 141 C0 138.69 0 136.38 0 134 C4.29 134 8.58 134 13 134 C12.67896746 120.19560063 9.33060403 106.40984003 1.00390625 95.140625 C-0.44042662 92.0608802 0.16401764 90.26536062 1 87 C2.77636719 84.43408203 2.77636719 84.43408203 5.046875 81.8828125 C9.93654073 76.1627166 14.12019939 70.1577393 18.25 63.875 C18.930625 62.85535156 19.61125 61.83570313 20.3125 60.78515625 C26.28242363 52.23678752 26.28242363 52.23678752 31 43 C30.67 42.01 30.34 41.02 30 40 Z " fill="#1048A0" transform="translate(316,113)"/>
<path d="M0 0 C1.5796134 0.43055435 3.16340901 0.84591511 4.75 1.25 C10.89755044 3.01448776 15.74979273 6.45147281 21 10 C21.84949219 10.5053125 22.69898438 11.010625 23.57421875 11.53125 C25.83580486 12.90058394 27.91474086 14.37813178 30 16 C27.61969714 17.8982541 25.22421023 19.76742226 22.8125 21.625 C22.13896484 22.16640625 21.46542969 22.7078125 20.77148438 23.265625 C18.88948054 24.69778402 17.1257762 25.96237408 15 27 C12.3515625 26.515625 12.3515625 26.515625 10 25 C9.13503906 24.54882812 8.27007812 24.09765625 7.37890625 23.6328125 C6.44949219 23.13523438 5.52007812 22.63765625 4.5625 22.125 C-5.76963618 16.92723824 -16.62591808 14.66449979 -28 13 C-28 17.29 -28 21.58 -28 26 C-30.31 26 -32.62 26 -35 26 C-35 21.71 -35 17.42 -35 13 C-59.09196381 17.60581661 -79.57798333 25.97610919 -95.05078125 46.0625 C-104.24029664 59.9112286 -108.29588629 73.66055681 -110 90 C-106.37 90 -102.74 90 -99 90 C-99 92.31 -99 94.62 -99 97 C-102.63 97 -106.26 97 -110 97 C-107.84491222 119.96615928 -98.81924478 138.65252953 -81.71875 154.0546875 C-79.54355996 155.82794025 -77.32706238 157.43184648 -75 159 C-74.13246094 159.59425781 -73.26492187 160.18851563 -72.37109375 160.80078125 C-61.04168111 167.99919717 -48.14032548 170.96417493 -35 173 C-35 169.04 -35 165.08 -35 161 C-32.69 161 -30.38 161 -28 161 C-28 164.96 -28 168.92 -28 173 C-12.59065791 170.37611258 -12.59065791 170.37611258 2 165 C2.81210937 164.64292969 3.62421875 164.28585937 4.4609375 163.91796875 C13.14888738 159.9215118 20.51823397 154.00731463 27 147 C27.51820313 146.47535156 28.03640625 145.95070313 28.5703125 145.41015625 C41.25056102 131.96226937 46.53020647 114.96213479 49 97 C44.71 97 40.42 97 36 97 C36 94.69 36 92.38 36 90 C40.29 90 44.58 90 49 90 C47.15164235 76.89935979 44.6512002 63.51495824 37.0625 52.375 C35 49 35 49 35.0859375 46.15625 C36.20352708 42.29722274 37.94140836 40.15217626 40.5625 37.125 C41.38878906 36.15820312 42.21507812 35.19140625 43.06640625 34.1953125 C44.02353516 33.10863281 44.02353516 33.10863281 45 32 C49.92166059 35.67351612 52.74180769 39.23540709 55.625 44.625 C56.20737427 45.69439819 56.20737427 45.69439819 56.80151367 46.78540039 C59.78664441 52.37534625 62.24169235 57.89908137 64 64 C64.55494141 65.75183594 64.55494141 65.75183594 65.12109375 67.5390625 C70.37568401 85.50810445 69.88360458 105.29169177 64 123 C63.60707593 124.32706406 63.21782152 125.65521955 62.83203125 126.984375 C60.57360097 134.52973234 57.76284731 140.73431252 53 147 C51.78637564 148.72545725 50.57816665 150.45473435 49.375 152.1875 C48.78074219 153.02410156 48.18648437 153.86070312 47.57421875 154.72265625 C45.88913253 157.09614827 45.88913253 157.09614827 44.1875 160.125 C39.5140427 166.26725817 32.6008858 171.03946852 26 175 C25.34 175 24.68 175 24 175 C24 175.66 24 176.32 24 177 C8.22252013 191.55034255 -18.85774362 193.98034808 -39.07275391 193.19970703 C-50.90611077 192.39239378 -62.38601418 189.27029172 -73 184 C-74.06605469 183.48566406 -75.13210937 182.97132813 -76.23046875 182.44140625 C-83.99983939 178.49751705 -90.4657482 173.72958875 -97 168 C-97.55018799 167.55841553 -98.10037598 167.11683105 -98.66723633 166.66186523 C-103.20163396 162.96986288 -106.60887443 158.98241184 -109.9375 154.1875 C-110.45183594 153.45047852 -110.96617187 152.71345703 -111.49609375 151.95410156 C-119.2429881 140.54195783 -124.41783391 128.30012162 -128 115 C-128.35835937 113.97519531 -128.71671875 112.95039063 -129.0859375 111.89453125 C-130.5821942 106.64541551 -130.28877386 101.22468428 -130.25 95.8125 C-130.25773438 94.75224609 -130.26546875 93.69199219 -130.2734375 92.59960938 C-130.24801352 82.16942303 -128.8902394 72.29570464 -125.25 62.5 C-124.98469482 61.77643311 -124.71938965 61.05286621 -124.44604492 60.30737305 C-117.15773982 40.85391825 -104.94337416 25.09278593 -88 13 C-86.66638975 11.95868789 -85.33305752 10.91701962 -84 9.875 C-62.70829792 -5.94991371 -24.25839166 -11.6626883 0 0 Z " fill="#DB6D31" transform="translate(280,157)"/>
<path d="M0 0 C0.99 0.495 0.99 0.495 2 1 C1.31035156 1.73863281 0.62070312 2.47726563 -0.08984375 3.23828125 C-6.32919735 9.95818689 -12.27166259 16.83485189 -18 24 C-18.93437372 25.15406875 -19.86929818 26.30769176 -20.8046875 27.4609375 C-32.4633583 41.87679108 -43.46622238 56.74418413 -54 72 C-54.47904785 72.69254883 -54.9580957 73.38509766 -55.45166016 74.09863281 C-65.31942656 88.43778304 -75.4155427 103.31385928 -83 119 C-87.0442928 117.42774566 -89.50573014 114.54827288 -92.3125 111.375 C-92.80032959 110.83302979 -93.28815918 110.29105957 -93.79077148 109.73266602 C-96.95820604 106.20449731 -100.08558969 102.64108239 -103.19140625 99.05859375 C-105.4301125 96.5104335 -107.71410212 94.00589407 -110 91.5 C-113.44394317 87.72360983 -116.84294931 83.91621742 -120.1953125 80.05859375 C-123.75317953 76.00016101 -127.38140544 72.00424976 -131 68 C-129.74932834 64.24798503 -127.87788933 62.67710635 -125 60 C-124.34 59.360625 -123.68 58.72125 -123 58.0625 C-121 57 -121 57 -118.86328125 57.54296875 C-114.84731536 59.58656394 -111.62495993 62.35904122 -108.1875 65.25 C-102.89671953 69.6547646 -97.54719732 73.92087878 -92 78 C-88.83884224 76.63016497 -88.0072908 76.0109362 -86 73 C-85.34 73 -84.68 73 -84 73 C-83.505 71.515 -83.505 71.515 -83 70 C-82.34 70 -81.68 70 -81 70 C-80.74476563 69.41863281 -80.48953125 68.83726562 -80.2265625 68.23828125 C-76.80495094 61.994385 -70.27194589 57.30395348 -64.93359375 52.71484375 C-63.04505403 51.03995701 -61.26844352 49.30052413 -59.5 47.5 C-55.83689313 43.78783366 -51.95104661 40.40090088 -48 37 C-46.90560447 36.04240391 -45.81191339 35.08400243 -44.71875 34.125 C-13.3886195 6.69430975 -13.3886195 6.69430975 0 0 Z " fill="#444B60" transform="translate(334,164)"/>
<path d="M0 0 C0.66 0.33 1.32 0.66 2 1 C0.96552734 2.10794922 0.96552734 2.10794922 -0.08984375 3.23828125 C-6.32997516 9.96133972 -12.27939127 16.82452041 -18 24 C-19.98 23.67 -21.96 23.34 -24 23 C-24.33 23.66 -24.66 24.32 -25 25 C-26.32 23.68 -27.64 22.36 -29 21 C-20.11990143 13.22784669 -10.61677485 5.30838743 0 0 Z " fill="#52596B" transform="translate(334,164)"/>
<path d="M0 0 C0.33 0 0.66 0 1 0 C1.16801189 6.51431814 1.32794171 13.02879826 1.48217773 19.54345703 C1.53564069 21.76095096 1.59097328 23.97840062 1.64819336 26.19580078 C1.72998452 29.37783255 1.8051129 32.55996149 1.87890625 35.7421875 C1.90594131 36.73805878 1.93297638 37.73393005 1.96083069 38.75997925 C1.98092697 39.68078278 2.00102325 40.6015863 2.02172852 41.55029297 C2.04171402 42.3630368 2.06169952 43.17578064 2.08229065 44.01315308 C2 46 2 46 1 48 C1.66 48 2.32 48 3 48 C3.33 53.61 3.66 59.22 4 65 C2.07335998 61.14671996 1.1890833 57.73856832 0.4375 53.5625 C0.30819092 52.85311279 0.17888184 52.14372559 0.0456543 51.4128418 C-1.08448074 44.96102165 -1.73778478 38.54718638 -2 32 C-2.04125 31.00097656 -2.0825 30.00195312 -2.125 28.97265625 C-2.32141546 19.23781496 -1.1413307 9.65035867 0 0 Z " fill="#466CA9" transform="translate(100,224)"/>
<path d="M0 0 C0.7425 0.391875 1.485 0.78375 2.25 1.1875 C2.25 2.1775 2.25 3.1675 2.25 4.1875 C-1.215 5.6725 -1.215 5.6725 -4.75 7.1875 C-2.72366931 11.51121893 -2.72366931 11.51121893 0.25 15.1875 C-0.41 17.1675 -1.07 19.1475 -1.75 21.1875 C-5.41666667 17.52083333 -9.08333333 13.85416667 -12.75 10.1875 C-11.49932834 6.43548503 -9.62788933 4.86460635 -6.75 2.1875 C-6.09 1.548125 -5.43 0.90875 -4.75 0.25 C-2.75 -0.8125 -2.75 -0.8125 0 0 Z " fill="#393F55" transform="translate(215.75,221.8125)"/>
<path d="M0 0 C0.66 0 1.32 0 2 0 C1.8125 1.875 1.8125 1.875 1 4 C-1.5625 5.25 -1.5625 5.25 -4 6 C-4 6.66 -4 7.32 -4 8 C-9.86960819 13.20293664 -16.45314885 15.39188592 -24 17 C-24 16.34 -24 15.68 -24 15 C-22.68 15 -21.36 15 -20 15 C-20 14.34 -20 13.68 -20 13 C-18.02 13 -16.04 13 -14 13 C-14 12.01 -14 11.02 -14 10 C-14.66 10 -15.32 10 -16 10 C-16 8 -16 8 -14.75 6.45703125 C-10.09420091 2.0818272 -10.09420091 2.0818272 -6.75390625 1.83203125 C-4.5625 2.125 -4.5625 2.125 -1 3 C-0.67 2.01 -0.34 1.02 0 0 Z " fill="#CA6D3F" transform="translate(308,326)"/>
<path d="M0 0 C0.495 0.99 0.495 0.99 1 2 C-16.16 2 -33.32 2 -51 2 C-51 1.67 -51 1.34 -51 1 C-34.52907589 -2.58434618 -16.55396432 -4.26350115 0 0 Z " fill="#AE6A53" transform="translate(273,154)"/>
<path d="M0 0 C0 0.33 0 0.66 0 1 C-5.78457229 1.97274974 -11.44916781 2.21069126 -17.30859375 2.31640625 C-18.75867577 2.3475779 -18.75867577 2.3475779 -20.23805237 2.37937927 C-23.30446758 2.44438991 -26.37096322 2.50353277 -29.4375 2.5625 C-31.5253987 2.6057314 -33.61328949 2.64934712 -35.70117188 2.69335938 C-40.80070033 2.80002115 -45.90030911 2.90142309 -51 3 C-51 2.67 -51 2.34 -51 2 C-33.87497674 -0.84496354 -17.30561259 -1.77493463 0 0 Z " fill="#577AAC" transform="translate(269,99)"/>
<path d="M0 0 C2.31 0 4.62 0 7 0 C7 3.96 7 7.92 7 12 C8.10859375 11.77183594 9.2171875 11.54367187 10.359375 11.30859375 C11.82282738 11.01777949 13.28637411 10.72743973 14.75 10.4375 C15.47960937 10.28603516 16.20921875 10.13457031 16.9609375 9.97851562 C20.66557073 9.25442822 23.39322322 8.90182769 27 10 C22.3710039 12.68943231 18.39606783 13.50873316 13.125 13.6875 C12.43664062 13.72166016 11.74828125 13.75582031 11.0390625 13.79101562 C9.35991387 13.87264091 7.67998832 13.9380157 6 14 C6 9.71 6 5.42 6 1 C4.35 1 2.7 1 1 1 C1.33 4.96 1.66 8.92 2 13 C1.01 13.33 0.02 13.66 -1 14 C-1 14.66 -1 15.32 -1 16 C-1.66 16 -2.32 16 -3 16 C-3 15.01 -3 14.02 -3 13 C-4.17369141 12.92652344 -4.17369141 12.92652344 -5.37109375 12.8515625 C-6.38300781 12.77679688 -7.39492187 12.70203125 -8.4375 12.625 C-9.44683594 12.55539062 -10.45617187 12.48578125 -11.49609375 12.4140625 C-12.32238281 12.27742188 -13.14867187 12.14078125 -14 12 C-14.33 11.34 -14.66 10.68 -15 10 C-13.4372038 10.14262412 -11.87477304 10.28925511 -10.3125 10.4375 C-9.00732422 10.55931641 -9.00732422 10.55931641 -7.67578125 10.68359375 C-5.09779359 10.98843609 -2.54553705 11.49089259 0 12 C0 8.04 0 4.08 0 0 Z " fill="#DF9C75" transform="translate(245,318)"/>
<path d="M0 0 C0.66 0.33 1.32 0.66 2 1 C1.29875 1.75023437 0.5975 2.50046875 -0.125 3.2734375 C-6.03874034 9.63966937 -11.68495658 16.11633345 -17 23 C-17.66 22.01 -18.32 21.02 -19 20 C-17.71034824 18.62437146 -16.37310707 17.29233607 -15 16 C-14.34 16 -13.68 16 -13 16 C-13.66 14.02 -14.32 12.04 -15 10 C-12.87609042 8.51924614 -10.75093595 7.04033944 -8.625 5.5625 C-8.02171875 5.14162109 -7.4184375 4.72074219 -6.796875 4.28710938 C-2.2265625 1.11328125 -2.2265625 1.11328125 0 0 Z " fill="#686C7D" transform="translate(334,164)"/>
<path d="M0 0 C3.90156658 3.03455179 6.79575992 5.46906205 9 10 C9 10.66 9 11.32 9 12 C8.01 12 7.02 12 6 12 C6 10.68 6 9.36 6 8 C5.34 8 4.68 8 4 8 C4 7.34 4 6.68 4 6 C2.68 5.67 1.36 5.34 0 5 C-0.928125 6.7015625 -0.928125 6.7015625 -1.875 8.4375 C-3.75 11.875 -3.75 11.875 -6 13 C-6.65772428 16.02934491 -6.65772428 16.02934491 -7 19 C-6.34 19 -5.68 19 -5 19 C-5.33 20.32 -5.66 21.64 -6 23 C-10.02876318 17.87248322 -10.02876318 17.87248322 -9.90625 14.15625 C-8.7968599 10.29251208 -7.05987879 8.15366283 -4.4375 5.125 C-3.61121094 4.15820312 -2.78492188 3.19140625 -1.93359375 2.1953125 C-1.29550781 1.47085938 -0.65742188 0.74640625 0 0 Z " fill="#DC946C" transform="translate(325,189)"/>
<path d="M0 0 C0.33 0 0.66 0 1 0 C0.83641991 9.97838559 -0.47899257 19.46877142 -2.4375 29.25 C-2.65494873 30.34497803 -2.87239746 31.43995605 -3.09643555 32.56811523 C-4.87536894 41.15258863 -4.87536894 41.15258863 -7 45 C-7.25052192 37.7348643 -7.25052192 37.7348643 -6.0625 34.25 C-4.68941175 30.04996537 -4.51390696 26.00369787 -4.24609375 21.609375 C-4 19 -4 19 -3 17 C-2.63434146 14.88032315 -2.30620454 12.75407841 -2 10.625 C-1.48041031 7.0284651 -0.96707058 3.50563084 0 0 Z " fill="#5478B0" transform="translate(465,264)"/>
<path d="M0 0 C0.66 0 1.32 0 2 0 C2 2.31 2 4.62 2 7 C-2.29 7 -6.58 7 -11 7 C-11 8.32 -11 9.64 -11 11 C-10.21753906 10.98839844 -9.43507813 10.97679687 -8.62890625 10.96484375 C-7.61699219 10.95582031 -6.60507812 10.94679687 -5.5625 10.9375 C-4.55316406 10.92589844 -3.54382813 10.91429687 -2.50390625 10.90234375 C0 11 0 11 1 12 C0.9617371 14.68428929 0.85535447 17.32352593 0.6875 20 C0.65205078 20.75023437 0.61660156 21.50046875 0.58007812 22.2734375 C0.46427187 24.18856178 0.2400308 26.09645139 0 28 C-0.66 28.33 -1.32 28.66 -2 29 C-1.34 23.72 -0.68 18.44 0 13 C-4.29 13 -8.58 13 -13 13 C-13 10.69 -13 8.38 -13 6 C-8.71 6 -4.42 6 0 6 C0 4.02 0 2.04 0 0 Z " fill="#DA9771" transform="translate(329,241)"/>
<path d="M0 0 C0.93423645 3.01031744 1.04449911 3.86650268 0 7 C-0.22287791 9.87213993 -0.39909471 12.72910692 -0.53515625 15.60546875 C-0.57813339 16.44467361 -0.62111053 17.28387848 -0.66539001 18.14851379 C-0.80170293 20.82799402 -0.93217138 23.50772268 -1.0625 26.1875 C-1.15391201 28.00457669 -1.24570425 29.8216343 -1.33789062 31.63867188 C-1.56300582 36.09223849 -1.78287996 40.54603674 -2 45 C-4.22576779 41.66134832 -4.25642147 40.55752439 -4.265625 36.66015625 C-4.26949219 35.06397461 -4.26949219 35.06397461 -4.2734375 33.43554688 C-4.26183594 31.76588867 -4.26183594 31.76588867 -4.25 30.0625 C-4.25773438 28.98419922 -4.26546875 27.90589844 -4.2734375 26.79492188 C-4.25140814 17.60317049 -3.67792792 8.52233404 0 0 Z " fill="#9A645C" transform="translate(154,223)"/>
<path d="M0 0 C0.33 0 0.66 0 1 0 C1 2.97 1 5.94 1 9 C0.34 9 -0.32 9 -1 9 C-0.938125 10.051875 -0.87625 11.10375 -0.8125 12.1875 C-1.01415969 16.28791361 -1.84554113 17.63904417 -4 21 C-4.71401232 24.19395026 -4.71401232 24.19395026 -5 27 C-5.66 27 -6.32 27 -7 27 C-7 28.32 -7 29.64 -7 31 C-7.66 31 -8.32 31 -9 31 C-9 31.99 -9 32.98 -9 34 C-9.99 34 -10.98 34 -12 34 C-10.25 28.25 -10.25 28.25 -8 26 C-7.37690558 24.48529434 -6.82194932 22.94204699 -6.30859375 21.38671875 C-6.00373047 20.46826172 -5.69886719 19.54980469 -5.38476562 18.60351562 C-5.07216797 17.64123047 -4.75957031 16.67894531 -4.4375 15.6875 C-3.96280273 14.26147461 -3.96280273 14.26147461 -3.47851562 12.80664062 C-2.07775065 8.55081329 -0.81234236 4.41246242 0 0 Z " fill="#3F4672" transform="translate(346,269)"/>
<path d="M0 0 C0.66 0.33 1.32 0.66 2 1 C1.09827532 2.17825358 0.17798498 3.34231577 -0.75 4.5 C-1.26046875 5.1496875 -1.7709375 5.799375 -2.296875 6.46875 C-4 8 -4 8 -8 8 C-8 8.66 -8 9.32 -8 10 C-11.71998622 12.79516589 -14.71981385 13.43515461 -19.3125 13.6875 C-20.38113281 13.75324219 -21.44976562 13.81898438 -22.55078125 13.88671875 C-23.76314453 13.94279297 -23.76314453 13.94279297 -25 14 C-22.13646952 12.09097968 -19.63595713 11.03433564 -16.4375 9.8125 C-10.31111801 7.32015946 -5.22934375 4.01456257 0 0 Z " fill="#DF9064" transform="translate(297,313)"/>
<path d="M0 0 C0.33 0 0.66 0 1 0 C1 2.31 1 4.62 1 7 C-2.63 7 -6.26 7 -10 7 C-8.99851833 15.08643179 -7.94661021 23.07451558 -6 31 C-6.66 31 -7.32 31 -8 31 C-8.12375 30.195625 -8.2475 29.39125 -8.375 28.5625 C-8.58125 27.716875 -8.7875 26.87125 -9 26 C-9.66 25.67 -10.32 25.34 -11 25 C-11.1938211 22.02111874 -11.38035102 19.04209754 -11.5625 16.0625 C-11.61857422 15.21236328 -11.67464844 14.36222656 -11.73242188 13.48632812 C-11.78076172 12.67744141 -11.82910156 11.86855469 -11.87890625 11.03515625 C-11.9260376 10.2862915 -11.97316895 9.53742676 -12.02172852 8.76586914 C-12 7 -12 7 -11 6 C-9.14712498 5.92773498 -7.29166122 5.9161878 -5.4375 5.9375 C-4.42558594 5.94652344 -3.41367188 5.95554688 -2.37109375 5.96484375 C-1.19740234 5.98224609 -1.19740234 5.98224609 0 6 C0 4.02 0 2.04 0 0 Z " fill="#E4A781" transform="translate(180,247)"/>
<path d="M0 0 C0.33 0 0.66 0 1 0 C1.02943124 3.79164991 1.0469419 7.58326979 1.0625 11.375 C1.07087891 12.43589844 1.07925781 13.49679688 1.08789062 14.58984375 C1.1079424 21.12672204 0.8058078 27.51174824 0 34 C-2 32 -2 32 -2.265625 29.62890625 C-2.21486444 19.66714545 -1.16908446 9.88502663 0 0 Z " fill="#6181AF" transform="translate(100,224)"/>
<path d="M0 0 C4.29 0 8.58 0 13 0 C13 4.29 13 8.58 13 13 C14.65 13 16.3 13 18 13 C18 9.04 18 5.08 18 1 C18.33 1 18.66 1 19 1 C19 5.29 19 9.58 19 14 C16.69 14 14.38 14 12 14 C12 9.71 12 5.42 12 1 C10.42798828 1.32484375 10.42798828 1.32484375 8.82421875 1.65625 C7.44534373 1.93765307 6.06643574 2.21889464 4.6875 2.5 C3.65206055 2.71462891 3.65206055 2.71462891 2.59570312 2.93359375 C-0.32524773 3.52625044 -3.01108122 4 -6 4 C-6 3.34 -6 2.68 -6 2 C-4.02 2 -2.04 2 0 2 C0 1.34 0 0.68 0 0 Z " fill="#E49F7D" transform="translate(233,169)"/>
<path d="M0 0 C0.66 0.33 1.32 0.66 2 1 C1.67 1.99 1.34 2.98 1 4 C-0.65204456 4.70211894 -2.31923769 5.36971413 -4 6 C-4.33 6.66 -4.66 7.32 -5 8 C-6.32 8 -7.64 8 -9 8 C-9 8.66 -9 9.32 -9 10 C-9.66 10 -10.32 10 -11 10 C-11.226875 10.61875 -11.45375 11.2375 -11.6875 11.875 C-13.37929835 14.61410209 -14.99244161 15.05024472 -18 16 C-18.66 15.34 -19.32 14.68 -20 14 C-13.43723889 9.16686378 -6.82851569 4.4511806 0 0 Z " fill="#3961A8" transform="translate(140,63)"/>
<path d="M0 0 C2.625 0.375 2.625 0.375 5 1 C0.90360674 4.47912852 -3.4220699 7.20388166 -8.0625 9.875 C-9.12307617 10.51695312 -9.12307617 10.51695312 -10.20507812 11.171875 C-10.89150391 11.56632812 -11.57792969 11.96078125 -12.28515625 12.3671875 C-12.90269775 12.72925293 -13.52023926 13.09131836 -14.15649414 13.46435547 C-16 14 -16 14 -18.23217773 13.10205078 C-18.81555908 12.73837402 -19.39894043 12.37469727 -20 12 C-20 11.67 -20 11.34 -20 11 C-17.69 11 -15.38 11 -13 11 C-13 10.34 -13 9.68 -13 9 C-11.68 9 -10.36 9 -9 9 C-9 8.01 -9 7.02 -9 6 C-8.01 6 -7.02 6 -6 6 C-6 5.34 -6 4.68 -6 4 C-4.68 4 -3.36 4 -2 4 C-2 3.34 -2 2.68 -2 2 C-1.34 1.34 -0.68 0.68 0 0 Z " fill="#5379B1" transform="translate(362,431)"/>
<path d="M0 0 C-1.36013581 3.14791257 -2.78053599 4.91363823 -5.4765625 7.015625 C-6.146875 7.54414063 -6.8171875 8.07265625 -7.5078125 8.6171875 C-8.20648438 9.15601563 -8.90515625 9.69484375 -9.625 10.25 C-10.33140625 10.80429687 -11.0378125 11.35859375 -11.765625 11.9296875 C-13.50531083 13.29322504 -15.25009481 14.64961945 -17 16 C-17.66 15.67 -18.32 15.34 -19 15 C-18.34 13.35 -17.68 11.7 -17 10 C-15.35 10 -13.7 10 -12 10 C-12 9.34 -12 8.68 -12 8 C-11.34 8 -10.68 8 -10 8 C-9.34 6.68 -8.68 5.36 -8 4 C-7.34 4 -6.68 4 -6 4 C-6 3.34 -6 2.68 -6 2 C-2.25 0 -2.25 0 0 0 Z " fill="#4C70AC" transform="translate(352,360)"/>
<path d="M0 0 C-0.94934513 1.67180274 -1.90973313 3.33733936 -2.875 5 C-3.40867187 5.928125 -3.94234375 6.85625 -4.4921875 7.8125 C-4.98976563 8.534375 -5.48734375 9.25625 -6 10 C-6.66 10 -7.32 10 -8 10 C-7.34 7.36 -6.68 4.72 -6 2 C-7.01320313 2.41572266 -7.01320313 2.41572266 -8.046875 2.83984375 C-8.93890625 3.20207031 -9.8309375 3.56429687 -10.75 3.9375 C-11.63171875 4.29714844 -12.5134375 4.65679687 -13.421875 5.02734375 C-15.61186104 5.85356576 -17.71898271 6.49369943 -20 7 C-19 4 -19 4 -17.28515625 2.83203125 C-11.35668627 0.1126452 -6.48611476 -0.48747418 0 0 Z " fill="#325AA2" transform="translate(352,152)"/>
<path d="M0 0 C0.598125 0.226875 1.19625 0.45375 1.8125 0.6875 C0.30083877 3.93644354 -1.55433478 6.76630348 -3.625 9.6875 C-4.22183594 10.533125 -4.81867188 11.37875 -5.43359375 12.25 C-6.99252576 14.41653358 -8.57664833 16.55940238 -10.1875 18.6875 C-10.07340407 17.22827307 -9.94584456 15.77009402 -9.8125 14.3125 C-9.74289063 13.50039062 -9.67328125 12.68828125 -9.6015625 11.8515625 C-9.1875 9.6875 -9.1875 9.6875 -7.1875 7.6875 C-6.1975 7.6875 -5.2075 7.6875 -4.1875 7.6875 C-4.414375 6.924375 -4.64125 6.16125 -4.875 5.375 C-5.1875 2.6875 -5.1875 2.6875 -4 0.8125 C-2.1875 -0.3125 -2.1875 -0.3125 0 0 Z " fill="#1E438D" transform="translate(171.1875,186.3125)"/>
<path d="M0 0 C0.33 0 0.66 0 1 0 C0.97643433 1.27677612 0.97643433 1.27677612 0.95239258 2.5793457 C0.90072849 5.79058507 0.86339283 9.00160997 0.83520508 12.21313477 C0.82028058 13.59308926 0.79993339 14.97299772 0.77368164 16.3527832 C0.62724602 24.25743521 0.84672042 31.24007891 3.44799805 38.75463867 C4.05950401 41.24204264 3.82847458 42.60659085 3 45 C-2.18607563 37.22088655 -1.28678168 27.07735433 -1.20581055 18.0559082 C-1.18726404 15.91020117 -1.1853034 13.76492038 -1.18554688 11.61914062 C-1.14788186 1.14788186 -1.14788186 1.14788186 0 0 Z " fill="#28417F" transform="translate(150,235)"/>
<path d="M0 0 C0.33 0 0.66 0 1 0 C0.67 2.31 0.34 4.62 0 7 C-0.99 7 -1.98 7 -3 7 C-3.66 9.31 -4.32 11.62 -5 14 C-5.66 14 -6.32 14 -7 14 C-7 15.32 -7 16.64 -7 18 C-7.66 18 -8.32 18 -9 18 C-9.12375 18.886875 -9.2475 19.77375 -9.375 20.6875 C-9.94412736 23.70387502 -10.76614436 26.20326054 -12 29 C-13.90081609 24.06975826 -11.47321743 20.11389726 -9.609375 15.48046875 C-7.1531335 10.16854842 -4.18912004 4.18912004 0 0 Z " fill="#A46A5F" transform="translate(168,194)"/>
<path d="M0 0 C0.33 0 0.66 0 1 0 C1 2.64 1 5.28 1 8 C4.3 8 7.6 8 11 8 C11 9.98 11 11.96 11 14 C7.37 14 3.74 14 0 14 C0.33 13.34 0.66 12.68 1 12 C3.64 12 6.28 12 9 12 C9 11.34 9 10.68 9 10 C7.700625 10.020625 6.40125 10.04125 5.0625 10.0625 C3.70834367 10.08399454 2.35243917 10.07148199 1 10 C0 9 0 9 -0.09765625 6.93359375 C-0.08605469 6.10988281 -0.07445312 5.28617188 -0.0625 4.4375 C-0.05347656 3.61121094 -0.04445312 2.78492188 -0.03515625 1.93359375 C-0.02355469 1.29550781 -0.01195312 0.65742188 0 0 Z " fill="#D08254" transform="translate(169,239)"/>
<path d="M0 0 C2.64 0.33 5.28 0.66 8 1 C8 1.66 8 2.32 8 3 C8.9075 3.103125 9.815 3.20625 10.75 3.3125 C14.09740858 4.02060566 15.394392 4.9155136 18 7 C20.14733927 7.70514846 20.14733927 7.70514846 22 8 C22 8.66 22 9.32 22 10 C16.52638111 9.4560915 12.41682999 7.44606199 7.625 4.9375 C6.52091797 4.37192383 6.52091797 4.37192383 5.39453125 3.79492188 C3.59260354 2.87055636 1.79576901 1.93627386 0 1 C0 0.67 0 0.34 0 0 Z " fill="#4D73AD" transform="translate(177,382)"/>
<path d="M0 0 C1.8871875 0.0309375 1.8871875 0.0309375 3.8125 0.0625 C-0.97106027 3.25154018 -4.64273 3.18358512 -10.359375 3.16015625 C-11.3830014 3.15803383 -11.3830014 3.15803383 -12.42730713 3.15586853 C-14.59741684 3.15029084 -16.7674217 3.13774254 -18.9375 3.125 C-20.41275892 3.11998211 -21.88801947 3.11541971 -23.36328125 3.11132812 C-26.97138798 3.10032875 -30.57943375 3.08307953 -34.1875 3.0625 C-34.1875 2.4025 -34.1875 1.7425 -34.1875 1.0625 C-32.98420044 1.07035522 -32.98420044 1.07035522 -31.7565918 1.07836914 C-28.12940247 1.09912897 -24.50222563 1.11215702 -20.875 1.125 C-18.98104492 1.13756836 -18.98104492 1.13756836 -17.04882812 1.15039062 C-15.84033203 1.15361328 -14.63183594 1.15683594 -13.38671875 1.16015625 C-12.27127686 1.16539307 -11.15583496 1.17062988 -10.0065918 1.17602539 C-6.505999 1.03505582 -3.54651731 -0.05813963 0 0 Z " fill="#314278" transform="translate(268.1875,347.9375)"/>
<path d="M0 0 C2.54352629 2.42503904 4.69852012 5.05590778 6.875 7.8125 C9.86877431 11.58509751 12.89787136 15.31622224 16 19 C14.35 18.67 12.7 18.34 11 18 C11 17.34 11 16.68 11 16 C10.34 16 9.68 16 9 16 C8.67 15.01 8.34 14.02 8 13 C7.319375 12.505 6.63875 12.01 5.9375 11.5 C5.298125 11.005 4.65875 10.51 4 10 C4 9.01 4 8.02 4 7 C3.34 7 2.68 7 2 7 C0 4 0 4 0 0 Z " fill="#DC996F" transform="translate(180,291)"/>
<path d="M0 0 C2.92879371 0.62759865 5.36095629 1.58622659 8 3 C8 3.66 8 4.32 8 5 C8.9075 5.226875 9.815 5.45375 10.75 5.6875 C14.44888324 7.18127977 15.77905658 8.75400577 18 12 C12.34068102 12 7.34136462 7.09272413 3.234375 3.421875 C2.12455995 2.31205995 1.05577038 1.16134741 0 0 Z " fill="#456BAC" transform="translate(152,365)"/>
<path d="M0 0 C1.06700419 3.98109128 1.52281995 7.90988529 2 12 C1.21625 12.0825 0.4325 12.165 -0.375 12.25 C-3.14749104 12.72806339 -3.14749104 12.72806339 -4.3125 15.0625 C-4.6528125 16.0215625 -4.6528125 16.0215625 -5 17 C-5.66 17 -6.32 17 -7 17 C-6.37954537 12.76677156 -4.89476441 9.47709705 -2.9375 5.6875 C-2.38964844 4.61886719 -1.84179688 3.55023438 -1.27734375 2.44921875 C-0.64505859 1.23685547 -0.64505859 1.23685547 0 0 Z " fill="#416BAC" transform="translate(59,147)"/>
<path d="M0 0 C2.47460246 3.71190369 3.18755875 7.13811362 4.1875 11.4375 C4.47270508 12.5831543 4.47270508 12.5831543 4.76367188 13.75195312 C4.93833984 14.49251953 5.11300781 15.23308594 5.29296875 15.99609375 C5.53309692 17.00434204 5.53309692 17.00434204 5.77807617 18.03295898 C6.02973542 20.26356246 5.66240813 21.87013053 5 24 C0.52690433 18.10364662 -0.16982245 10.21092268 0 3 C-0.66 2.67 -1.32 2.34 -2 2 C-1.34 2 -0.68 2 0 2 C0 1.34 0 0.68 0 0 Z " fill="#527CB1" transform="translate(457,189)"/>
<path d="M0 0 C0.99 0 1.98 0 3 0 C3 1.32 3 2.64 3 4 C6.3 4.99 9.6 5.98 13 7 C13 7.99 13 8.98 13 10 C6.79522136 8.06375702 0.89174281 5.74390859 -5 3 C-4.360625 2.690625 -3.72125 2.38125 -3.0625 2.0625 C-1.06389179 1.1654837 -1.06389179 1.1654837 0 0 Z " fill="#5277B0" transform="translate(161,443)"/>
<path d="M0 0 C0.66 0 1.32 0 2 0 C0.4805627 4.8603687 -2.32918654 8.06079356 -5.625 11.8125 C-6.140625 12.40998047 -6.65625 13.00746094 -7.1875 13.62304688 C-8.45246272 15.08712409 -9.72543834 16.54427155 -11 18 C-11.66 17.67 -12.32 17.34 -13 17 C-13 16.34 -13 15.68 -13 15 C-12.01 15 -11.02 15 -10 15 C-10.33 14.01 -10.66 13.02 -11 12 C-10.34 12 -9.68 12 -9 12 C-9 11.34 -9 10.68 -9 10 C-8.01 10 -7.02 10 -6 10 C-6 9.34 -6 8.68 -6 8 C-5.34 8 -4.68 8 -4 8 C-3.855625 7.38125 -3.71125 6.7625 -3.5625 6.125 C-3 4 -3 4 -2 2 C-1.34 2 -0.68 2 0 2 C0 1.34 0 0.68 0 0 Z " fill="#6282B6" transform="translate(373,334)"/>
<path d="M0 0 C0.33 0 0.66 0 1 0 C1.38281159 5.23175837 0.21854707 8.37802694 -2 13 C-2.66 13 -3.32 13 -4 13 C-4.2475 13.78375 -4.495 14.5675 -4.75 15.375 C-6.15389099 18.32317108 -7.00675737 18.9024777 -10 20 C-8.31338027 15.45910073 -5.99607926 11.59372682 -3.4375 7.5 C-2.03242942 5.05639899 -0.98016869 2.63891571 0 0 Z " fill="#D98F68" transform="translate(323,279)"/>
<path d="M0 0 C3.99500618 1.3697164 6.80009492 3.25722422 10 6 C5.545 9.465 5.545 9.465 1 13 C0.67 11.68 0.34 10.36 0 9 C1.32 9 2.64 9 4 9 C4 8.34 4 7.68 4 7 C3.34 7 2.68 7 2 7 C2.33 5.35 2.66 3.7 3 2 C2.01 2 1.02 2 0 2 C0 1.34 0 0.68 0 0 Z " fill="#D18661" transform="translate(300,167)"/>
<path d="M0 0 C4.66666667 4 9.33333333 8 14 12 C13.34 12.66 12.68 13.32 12 14 C12 13.34 12 12.68 12 12 C10.35 12 8.7 12 7 12 C7 10.68 7 9.36 7 8 C6.21625 7.896875 5.4325 7.79375 4.625 7.6875 C2 7 2 7 0 4 C-0.33 3.34 -0.66 2.68 -1 2 C-0.67 1.34 -0.34 0.68 0 0 Z " fill="#5C7EB7" transform="translate(127,371)"/>
<path d="M0 0 C0.33 0.99 0.66 1.98 1 3 C0.01 3.66 -0.98 4.32 -2 5 C-2.45375 5.763125 -2.9075 6.52625 -3.375 7.3125 C-5.23291344 10.385203 -7.33296693 12.60650878 -10 15 C-10.66 15 -11.32 15 -12 15 C-11.58685438 10.55073948 -8.49538473 8.15899896 -5.4375 5.25 C-4.91736328 4.74339844 -4.39722656 4.23679687 -3.86132812 3.71484375 C-2.58089916 2.46965595 -1.29132446 1.23388498 0 0 Z " fill="#597EB3" transform="translate(377,366)"/>
<path d="M0 0 C0.66 0 1.32 0 2 0 C2.86916887 1.40751221 3.71985149 2.8264521 4.5625 4.25 C5.03816406 5.03890625 5.51382813 5.8278125 6.00390625 6.640625 C7.13022151 9.30844625 7.0169313 10.34501768 6 13 C5.67 12.34 5.34 11.68 5 11 C4.01 11 3.02 11 2 11 C0.19769832 7.17010894 -0.19622241 4.21878192 0 0 Z " fill="#3864A5" transform="translate(96,330)"/>
<path d="M0 0 C0.33 0 0.66 0 1 0 C1.67301289 3.24871916 2.3372951 6.49916379 3 9.75 C3.19078125 10.67039062 3.3815625 11.59078125 3.578125 12.5390625 C3.75859375 13.42851562 3.9390625 14.31796875 4.125 15.234375 C4.29257813 16.05131836 4.46015625 16.86826172 4.6328125 17.70996094 C5 20 5 20 5 24 C4.34 24 3.68 24 3 24 C2.86722656 23.28972656 2.73445313 22.57945312 2.59765625 21.84765625 C2.42105469 20.92855469 2.24445313 20.00945312 2.0625 19.0625 C1.80146484 17.68771484 1.80146484 17.68771484 1.53515625 16.28515625 C1.22285012 14.04710156 1.22285012 14.04710156 0 13 C-0.26087055 11.3826026 -0.45964436 9.75493414 -0.625 8.125 C-0.72039062 7.24070312 -0.81578125 6.35640625 -0.9140625 5.4453125 C-1 3 -1 3 0 0 Z " fill="#547AB2" transform="translate(79,274)"/>
<path d="M0 0 C3.90156658 3.03455179 6.79575992 5.46906205 9 10 C9 10.66 9 11.32 9 12 C8.01 12 7.02 12 6 12 C6 10.68 6 9.36 6 8 C5.34 8 4.68 8 4 8 C4 7.34 4 6.68 4 6 C2.15274948 5.30840599 2.15274948 5.30840599 0 5 C-0.99 5.66 -1.98 6.32 -3 7 C-2.25 2.25 -2.25 2.25 0 0 Z " fill="#D7855F" transform="translate(325,189)"/>
<path d="M0 0 C0.928125 0.2784375 0.928125 0.2784375 1.875 0.5625 C4.04160178 1.23686176 4.04160178 1.23686176 6 0 C5.95875 0.9075 5.9175 1.815 5.875 2.75 C5.99531556 5.8782046 6.3914708 7.38614006 8 10 C8.66 10 9.32 10 10 10 C10 10.99 10 11.98 10 13 C8.203125 12.80859375 8.203125 12.80859375 6 12 C4.296875 9.78515625 4.296875 9.78515625 2.75 7.0625 C2.22921875 6.16660156 1.7084375 5.27070313 1.171875 4.34765625 C0 2 0 2 0 0 Z " fill="#436AA6" transform="translate(393,153)"/>
<path d="M0 0 C0 4.04047499 -1.75307409 6.76717803 -4 10 C-7.29032258 13 -7.29032258 13 -10 13 C-10 13.66 -10 14.32 -10 15 C-10.66 14.67 -11.32 14.34 -12 14 C-10.75314243 12.41419086 -9.50236974 10.8314596 -8.25 9.25 C-7.20585938 7.92742187 -7.20585938 7.92742187 -6.140625 6.578125 C-4.20054103 4.24152752 -2.18487814 2.1061438 0 0 Z " fill="#3C61A6" transform="translate(92,102)"/>
<path d="M0 0 C3.99500618 1.3697164 6.80009492 3.25722422 10 6 C9.67 6.99 9.34 7.98 9 9 C1.4726477 6.84682713 1.4726477 6.84682713 -0.5 3.3125 C-0.665 2.549375 -0.83 1.78625 -1 1 C-0.67 0.67 -0.34 0.34 0 0 Z " fill="#134592" transform="translate(140,384)"/>
<path d="M0 0 C0.66 0 1.32 0 2 0 C2.8680908 1.91040052 3.71901783 3.82860737 4.5625 5.75 C5.03816406 6.81734375 5.51382812 7.8846875 6.00390625 8.984375 C6.9946154 11.98369837 7.16161779 13.13421241 6 16 C4 14 4 14 3.875 11.375 C3.91625 10.59125 3.9575 9.8075 4 9 C2.68 8.34 1.36 7.68 0 7 C0 4.69 0 2.38 0 0 Z " fill="#3D66A7" transform="translate(444,157)"/>
<path d="M0 0 C0.66 0.33 1.32 0.66 2 1 C0.02 1.99 -1.96 2.98 -4 4 C-3.67 4.99 -3.34 5.98 -3 7 C-4.65 7.33 -6.3 7.66 -8 8 C-8 7.67 -8 7.34 -8 7 C-10.97 7 -13.94 7 -17 7 C-14.69770126 4.69770126 -13.28931803 4.35567394 -10.1875 3.5 C-7.35527218 2.69896587 -4.72157217 1.88398841 -2 0.75 C-1.34 0.5025 -0.68 0.255 0 0 Z " fill="#34467C" transform="translate(289,341)"/>
<path d="M0 0 C2.31 0.33 4.62 0.66 7 1 C7 1.66 7 2.32 7 3 C8.55460938 3.16435547 8.55460938 3.16435547 10.140625 3.33203125 C11.51049264 3.49153639 12.88028037 3.65172884 14.25 3.8125 C14.93191406 3.88275391 15.61382812 3.95300781 16.31640625 4.02539062 C20.35854844 4.51594186 23.00546098 5.18297231 26 8 C16.65192648 7.42320397 8.25882762 5.56408895 0 1 C0 0.67 0 0.34 0 0 Z " fill="#AC6C59" transform="translate(207,340)"/>
<path d="M0 0 C2.64 0.33 5.28 0.66 8 1 C8 1.33 8 1.66 8 2 C5.1259578 2.50612064 2.25097127 3.00506541 -0.625 3.5 C-1.43324219 3.64308594 -2.24148438 3.78617187 -3.07421875 3.93359375 C-7.43877864 4.67876251 -11.55238129 5.17272306 -16 5 C-11.92843521 2.9642176 -9.48875072 1.87834935 -4.875 1.9375 C-3.96492188 1.94652344 -3.05484375 1.95554687 -2.1171875 1.96484375 C-1.41851562 1.97644531 -0.71984375 1.98804688 0 2 C0 1.34 0 0.68 0 0 Z " fill="#6183B7" transform="translate(284,461)"/>
<path d="M0 0 C4.87551498 4.87551498 6.40373356 13.29200257 7 20 C6.34 19.01 5.68 18.02 5 17 C4.319375 15.989375 3.63875 14.97875 2.9375 13.9375 C0.39367564 9.5307262 0.201152 4.99862726 0 0 Z " fill="#AA6B59" transform="translate(338,208)"/>
<path d="M0 0 C0.9075 0.165 1.815 0.33 2.75 0.5 C6.11087503 1.10137146 6.11087503 1.10137146 10 1 C10 2.65 10 4.3 10 6 C10.5775 6.0825 11.155 6.165 11.75 6.25 C14.6159304 7.20531013 15.9990764 8.78469173 18 11 C14.94131236 10.38146539 12.73745737 9.38192516 10.125 7.6875 C9.43664062 7.24277344 8.74828125 6.79804688 8.0390625 6.33984375 C7.02972656 5.67662109 7.02972656 5.67662109 6 5 C5.38898438 4.60941406 4.77796875 4.21882812 4.1484375 3.81640625 C2.74510534 2.90856341 1.36924997 1.95847498 0 1 C0 0.67 0 0.34 0 0 Z " fill="#37487D" transform="translate(292,161)"/>
<path d="M0 0 C2.07444392 2.07444392 3.00647758 3.73908275 4.25 6.375 C4.62640625 7.14585937 5.0028125 7.91671875 5.390625 8.7109375 C6 11 6 11 5.109375 13.2890625 C4.56023437 14.13597656 4.56023437 14.13597656 4 15 C3.01 12.69 2.02 10.38 1 8 C0.01 8.66 -0.98 9.32 -2 10 C-1.33333333 6.66666667 -0.66666667 3.33333333 0 0 Z " fill="#DD8D60" transform="translate(174,278)"/>
<path d="M0 0 C0.33 0.66 0.66 1.32 1 2 C0.33370721 3.6990466 -0.34607005 5.3948548 -1.11328125 7.05078125 C-2.02217212 8.98538178 -2.02217212 8.98538178 -2.73046875 10.98046875 C-3.4375 12.875 -3.4375 12.875 -5 16 C-7.1875 16.9375 -7.1875 16.9375 -9 17 C-7.68925635 12.53817564 -5.92933989 9.00381243 -3.375 5.125 C-2.74335937 4.15820312 -2.11171875 3.19140625 -1.4609375 2.1953125 C-0.73777344 1.10863281 -0.73777344 1.10863281 0 0 Z " fill="#6184B8" transform="translate(123,166)"/>
<path d="M0 0 C0.5625 1.9375 0.5625 1.9375 1 4 C0.67 4.33 0.34 4.66 0 5 C-0.07148199 6.35243917 -0.08399454 7.70834367 -0.0625 9.0625 C-0.041875 10.361875 -0.02125 11.66125 0 13 C-1.32 13.33 -2.64 13.66 -4 14 C-3.85769192 12.58297487 -3.71099254 11.1663904 -3.5625 9.75 C-3.48128906 8.96109375 -3.40007812 8.1721875 -3.31640625 7.359375 C-3.02048007 5.15271556 -2.70573121 3.11251991 -2 1 C-1.34 0.67 -0.68 0.34 0 0 Z " fill="#D9804F" transform="translate(328,269)"/>
<path d="M0 0 C0.66 0.33 1.32 0.66 2 1 C1.34 1.66 0.68 2.32 0 3 C-0.226875 3.825 -0.45375 4.65 -0.6875 5.5 C-2 8 -2 8 -5.4375 9.3125 C-9 10 -9 10 -12 10 C-8 6.66666667 -4 3.33333333 0 0 Z " fill="#B7694E" transform="translate(198,165)"/>
<path d="M0 0 C0.33 0 0.66 0 1 0 C1.125 7.75 1.125 7.75 0 10 C-3.0625 10.625 -3.0625 10.625 -6 11 C-4.55007731 6.89188572 -2.54592427 3.53144334 0 0 Z " fill="#426CAE" transform="translate(343,162)"/>
<path d="M0 0 C1.32 0 2.64 0 4 0 C4 0.66 4 1.32 4 2 C5.32 2 6.64 2 8 2 C8.33 3.65 8.66 5.3 9 7 C10.32 7.33 11.64 7.66 13 8 C12.67 8.99 12.34 9.98 12 11 C9.99702215 9.35767739 7.99756092 7.71138756 6 6.0625 C5.42765625 5.59392578 4.8553125 5.12535156 4.265625 4.64257812 C2.82502935 3.45065672 1.41025129 2.22767412 0 1 C0 0.67 0 0.34 0 0 Z " fill="#4C75AF" transform="translate(103,409)"/>
<path d="M0 0 C3.77545388 1.09068668 6.47043472 1.9083091 9 5 C8.34 5.66 7.68 6.32 7 7 C6.01 7 5.02 7 4 7 C4 7.66 4 8.32 4 9 C3.34 9 2.68 9 2 9 C1.4465236 6.92446352 1 5.15634036 1 3 C0.67 2.01 0.34 1.02 0 0 Z " fill="#DE8353" transform="translate(208,319)"/>
<path d="M0 0 C0.66 0.33 1.32 0.66 2 1 C-0.64 3.97 -3.28 6.94 -6 10 C-6.33 9.01 -6.66 8.02 -7 7 C-8.32 7.33 -9.64 7.66 -11 8 C-7.71644638 4.32241995 -4.37221763 2.18610882 0 0 Z " fill="#888F97" transform="translate(334,164)"/>
<path d="M0 0 C0.33 1.32 0.66 2.64 1 4 C0.34 4 -0.32 4 -1 4 C-1.66 5.32 -2.32 6.64 -3 8 C-3.66 8 -4.32 8 -5 8 C-5.33 9.65 -5.66 11.3 -6 13 C-6.99 13 -7.98 13 -9 13 C-7.47987323 7.59510481 -3.72614782 4.01507372 0 0 Z " fill="#4F73AF" transform="translate(138,147)"/>
<path d="M0 0 C2.33944736 0.28730055 4.6739143 0.61936779 7 1 C5.35 3.64 3.7 6.28 2 9 C1.67 8.34 1.34 7.68 1 7 C0.34 7 -0.32 7 -1 7 C-1.04254356 5.00045254 -1.04080783 2.99958364 -1 1 C-0.67 0.67 -0.34 0.34 0 0 Z " fill="#3160AA" transform="translate(105,146)"/>
<path d="M0 0 C-0.33 0.99 -0.66 1.98 -1 3 C-7.3778552 4.17293889 -13.50321562 5.29530838 -20 5 C-20 4.67 -20 4.34 -20 4 C-17.23010036 3.32923511 -14.45920258 2.66323683 -11.6875 2 C-10.90181641 1.80921875 -10.11613281 1.6184375 -9.30664062 1.421875 C-8.54931641 1.24140625 -7.79199219 1.0609375 -7.01171875 0.875 C-6.31522217 0.70742188 -5.61872559 0.53984375 -4.90112305 0.3671875 C-3 0 -3 0 0 0 Z " fill="#5477B1" transform="translate(302,415)"/>
<path d="M0 0 C0.99 0.33 1.98 0.66 3 1 C1 6 -1 11 -3 16 C-3.66 15.34 -4.32 14.68 -5 14 C-5 12.68 -5 11.36 -5 10 C-4.34 10 -3.68 10 -3 10 C-2.7834375 9.071875 -2.7834375 9.071875 -2.5625 8.125 C-2 6 -2 6 -1 4 C-0.34 4 0.32 4 1 4 C0.67 2.68 0.34 1.36 0 0 Z " fill="#4E73AE" transform="translate(94,169)"/>
<path d="M0 0 C3.59309034 1.19769678 4.42093253 2.4676789 6.6875 5.4375 C7.31011719 6.24058594 7.93273437 7.04367188 8.57421875 7.87109375 C10 10 10 10 10 12 C8.68 12 7.36 12 6 12 C6 10.35 6 8.7 6 7 C5.01 7 4.02 7 3 7 C0.8125 4.5 0.8125 4.5 -1 2 C-0.67 1.34 -0.34 0.68 0 0 Z " fill="#4169A9" transform="translate(365,153)"/>
<path d="M0 0 C2.97 0.33 5.94 0.66 9 1 C9.309375 1.78375 9.61875 2.5675 9.9375 3.375 C10.92875038 5.92330128 10.92875038 5.92330128 12 8 C7.69235185 6.43358249 3.93828536 4.31663844 0 2 C0 1.34 0 0.68 0 0 Z " fill="#416AA8" transform="translate(332,97)"/>
<path d="M0 0 C0 0.66 0 1.32 0 2 C-5.81215618 2.8916376 -11.146336 3.00380742 -17 2.5625 C-18.16208984 2.48418945 -18.16208984 2.48418945 -19.34765625 2.40429688 C-21.23224487 2.27633098 -23.11620371 2.13914404 -25 2 C-25 1.67 -25 1.34 -25 1 C-21.95843125 0.83135856 -18.91676547 0.66502247 -15.875 0.5 C-15.0190625 0.45230469 -14.163125 0.40460938 -13.28125 0.35546875 C-8.84778214 0.11674356 -4.44201651 -0.05825595 0 0 Z " fill="#6D91C3" transform="translate(276,421)"/>
<path d="M0 0 C0.99 0.33 1.98 0.66 3 1 C-0.07517084 11.55808656 -0.07517084 11.55808656 -2 16 C-2.66 15.67 -3.32 15.34 -4 15 C-4 14.34 -4 13.68 -4 13 C-3.34 13 -2.68 13 -2 13 C-2 10.36 -2 7.72 -2 5 C-1.34 5 -0.68 5 0 5 C0 3.35 0 1.7 0 0 Z " fill="#4D76B2" transform="translate(453,316)"/>
<path d="M0 0 C0.99 0.66 1.98 1.32 3 2 C2.25 8.625 2.25 8.625 0 12 C-0.99 11.67 -1.98 11.34 -3 11 C-2.67 9.68 -2.34 8.36 -2 7 C-1.34 7 -0.68 7 0 7 C0 4.69 0 2.38 0 0 Z " fill="#E16B28" transform="translate(174,285)"/>
<path d="M0 0 C2.64 0 5.28 0 8 0 C8 1.32 8 2.64 8 4 C9.65 4 11.3 4 13 4 C13 4.99 13 5.98 13 7 C9.34899606 7 7.89878202 5.9552415 4.8125 4.0625 C3.46091797 3.24458984 3.46091797 3.24458984 2.08203125 2.41015625 C1.39496094 1.94480469 0.70789063 1.47945313 0 1 C0 0.67 0 0.34 0 0 Z " fill="#476FAE" transform="translate(135,433)"/>
<path d="M0 0 C0.99 0.33 1.98 0.66 3 1 C3 1.33 3 1.66 3 2 C4.65 2.33 6.3 2.66 8 3 C5.14693203 5.32472205 2.45925163 6.7508258 -1 8 C-1.625 5.6875 -1.625 5.6875 -2 3 C-1.34 2.01 -0.68 1.02 0 0 Z " fill="#3B68AD" transform="translate(319,377)"/>
<path d="M0 0 C2.46140365 2.46140365 3.30326986 4.78456293 4.625 8 C5.07101563 9.0725 5.51703125 10.145 5.9765625 11.25 C7 14 7 14 7 16 C6.34 16 5.68 16 5 16 C4 14.33333333 3 12.66666667 2 11 C1.34 11 0.68 11 0 11 C0 7.37 0 3.74 0 0 Z " fill="#384679" transform="translate(154,280)"/>
<path d="M0 0 C0.66 0.33 1.32 0.66 2 1 C1.401875 1.53625 0.80375 2.0725 0.1875 2.625 C-2.16862666 4.94493582 -2.16862666 4.94493582 -3.5 8.1875 C-5 11 -5 11 -7.0625 11.8125 C-7.701875 11.874375 -8.34125 11.93625 -9 12 C-9.99 12.495 -9.99 12.495 -11 13 C-9.46356148 9.31930113 -7.21849055 7.01224796 -4.375 4.25 C-3.55773437 3.45078125 -2.74046875 2.6515625 -1.8984375 1.828125 C-0.95871094 0.92320312 -0.95871094 0.92320312 0 0 Z " fill="#B36D56" transform="translate(184,176)"/>
<path d="M0 0 C-5.61 1.98 -11.22 3.96 -17 6 C-17 5.01 -17 4.02 -17 3 C-14.9246318 2.10627207 -12.83932994 1.23558304 -10.75 0.375 C-9.58984375 -0.11226563 -8.4296875 -0.59953125 -7.234375 -1.1015625 C-4 -2 -4 -2 0 0 Z " fill="#4F75B0" transform="translate(196,87)"/>
<path d="M0 0 C4.75 0.75 4.75 0.75 7 3 C5.98679687 3.19916016 5.98679687 3.19916016 4.953125 3.40234375 C3.61507813 3.66724609 3.61507813 3.66724609 2.25 3.9375 C1.36828125 4.11152344 0.4865625 4.28554688 -0.421875 4.46484375 C-2.9581007 4.9468129 -2.9581007 4.9468129 -5.203125 5.69140625 C-6.09257812 5.84416016 -6.09257812 5.84416016 -7 6 C-7.66 5.34 -8.32 4.68 -9 4 C-6.03 3.34 -3.06 2.68 0 2 C0 1.34 0 0.68 0 0 Z " fill="#2B5BAC" transform="translate(331,50)"/>
<path d="M0 0 C0 0.66 0 1.32 0 2 C-0.66 2 -1.32 2 -2 2 C-2.185625 2.598125 -2.37125 3.19625 -2.5625 3.8125 C-5.14051288 7.73556308 -9.53421272 8.6569434 -13.9375 9.6875 C-14.618125 9.790625 -15.29875 9.89375 -16 10 C-7.55172414 3 -7.55172414 3 -4 3 C-4 2.34 -4 1.68 -4 1 C-2 0 -2 0 0 0 Z " fill="#31457E" transform="translate(308,331)"/>
<path d="M0 0 C0.33 1.32 0.66 2.64 1 4 C-0.65 4.33 -2.3 4.66 -4 5 C-4.04125 5.61875 -4.0825 6.2375 -4.125 6.875 C-4.41375 7.57625 -4.7025 8.2775 -5 9 C-8.0625 10.25 -8.0625 10.25 -11 11 C-7.6189962 6.86378916 -4.33409466 3.18683431 0 0 Z " fill="#858994" transform="translate(266,220)"/>
<path d="M0 0 C0 0.66 0 1.32 0 2 C-2.20795422 2.48091058 -4.416381 2.95965179 -6.625 3.4375 C-8.46964844 3.83775391 -8.46964844 3.83775391 -10.3515625 4.24609375 C-13.56017072 4.90911451 -16.76447568 5.48729384 -20 6 C-17.30434515 3.30434515 -14.78319847 2.9017293 -11.125 1.875 C-9.89007813 1.52179688 -8.65515625 1.16859375 -7.3828125 0.8046875 C-4 0 -4 0 0 0 Z " fill="#6B88BC" transform="translate(218,102)"/>
<path d="M0 0 C0.33 0 0.66 0 1 0 C1.08069658 2.95887459 1.14034665 5.9155659 1.1875 8.875 C1.22520508 10.13763672 1.22520508 10.13763672 1.26367188 11.42578125 C1.27333984 12.23144531 1.28300781 13.03710938 1.29296875 13.8671875 C1.3086792 14.61081543 1.32438965 15.35444336 1.34057617 16.12060547 C1.17199097 17.05090576 1.17199097 17.05090576 1 18 C0.01 18.66 -0.98 19.32 -2 20 C-1.03644647 6.3667426 -1.03644647 6.3667426 0 0 Z " fill="#4A70AB" transform="translate(422,262)"/>
<path d="M0 0 C3.375 -0.125 3.375 -0.125 7 0 C7.66 0.66 8.32 1.32 9 2 C8.34 3.98 7.68 5.96 7 8 C4.35247996 5.42215154 2.05567935 3.08351902 0 0 Z " fill="#656A7A" transform="translate(207,235)"/>
<path d="M0 0 C0.33 0 0.66 0 1 0 C1.21824777 6.0018137 0.5056904 11.19233704 -1 17 C-1.66 17 -2.32 17 -3 17 C-2.54775239 11.08507728 -1.8417395 5.64800112 0 0 Z " fill="#5A7EB3" transform="translate(104,207)"/>
<path d="M0 0 C0.99 0.33 1.98 0.66 3 1 C2.71572583 2.58467728 2.42225182 4.1677057 2.125 5.75 C1.88136719 7.07257813 1.88136719 7.07257813 1.6328125 8.421875 C1.03203736 10.86947744 0.22002883 12.80599857 -1 15 C-1.38133299 13.0085944 -1.71325582 11.00720923 -2 9 C-1.67 8.67 -1.34 8.34 -1 8 C-0.76924918 6.65252916 -0.58846937 5.29622435 -0.4375 3.9375 C-0.293125 2.638125 -0.14875 1.33875 0 0 Z " fill="#4269A9" transform="translate(83,194)"/>
<path d="M0 0 C-1.39275254 3.3772445 -2.82273931 4.87070305 -5.9375 6.75 C-6.62714844 7.17796875 -7.31679687 7.6059375 -8.02734375 8.046875 C-10 9 -10 9 -13 9 C-11.40423801 7.49106184 -9.79810089 5.99308924 -8.1875 4.5 C-7.29417969 3.6646875 -6.40085938 2.829375 -5.48046875 1.96875 C-3 0 -3 0 0 0 Z " fill="#6385B7" transform="translate(160,129)"/>
<path d="M0 0 C0 2.71929057 -0.05620165 4.4832044 -1 7 C-3.55450494 9.38420461 -4.4404523 10 -8 10 C-6.34908222 5.70761377 -3.26245434 3.1206085 0 0 Z " fill="#2D579C" transform="translate(101,93)"/>
<path d="M0 0 C1.32 0.66 2.64 1.32 4 2 C1.24479785 4.95929119 -1.46627288 7.03681826 -5 9 C-5.33 7.68 -5.66 6.36 -6 5 C-5.01 4.67 -4.02 4.34 -3 4 C-2.67 3.34 -2.34 2.68 -2 2 C-1.34 2 -0.68 2 0 2 C0 1.34 0 0.68 0 0 Z " fill="#3C6BAD" transform="translate(380,418)"/>
<path d="M0 0 C5.61 0.66 11.22 1.32 17 2 C16.67 2.66 16.34 3.32 16 4 C15.34 4 14.68 4 14 4 C14 4.66 14 5.32 14 6 C13.34 6 12.68 6 12 6 C12 5.01 12 4.02 12 3 C10.82630859 2.92652344 10.82630859 2.92652344 9.62890625 2.8515625 C8.11103516 2.73941406 8.11103516 2.73941406 6.5625 2.625 C5.04849609 2.52058594 5.04849609 2.52058594 3.50390625 2.4140625 C2.67761719 2.27742188 1.85132813 2.14078125 1 2 C0.67 1.34 0.34 0.68 0 0 Z " fill="#DD9066" transform="translate(230,328)"/>
<path d="M0 0 C0.33 0 0.66 0 1 0 C1.33 5.61 1.66 11.22 2 17 C-0.67159397 11.65681206 -2.91606959 6.92239691 -1 1 C-0.67 0.67 -0.34 0.34 0 0 Z " fill="#274482" transform="translate(345,215)"/>
<path d="M0 0 C0.66 0.33 1.32 0.66 2 1 C1.67 1.99 1.34 2.98 1 4 C-0.65204456 4.70211894 -2.31923769 5.36971413 -4 6 C-4.33 6.66 -4.66 7.32 -5 8 C-7.32156597 8.40729228 -9.6568787 8.74438677 -12 9 C-9.67350413 6.49280542 -7.17318479 4.67816399 -4.3125 2.8125 C-3.50425781 2.28269531 -2.69601563 1.75289063 -1.86328125 1.20703125 C-1.24839844 0.80871094 -0.63351563 0.41039062 0 0 Z " fill="#5478B2" transform="translate(140,63)"/>
<path d="M0 0 C4.455 2.97 4.455 2.97 9 6 C5 7 5 7 3 6 C2.67 6.66 2.34 7.32 2 8 C1.34 8 0.68 8 0 8 C-0.33 6.68 -0.66 5.36 -1 4 C-0.34 4 0.32 4 1 4 C0.67 2.68 0.34 1.36 0 0 Z " fill="#E18C5D" transform="translate(196,310)"/>
<path d="M0 0 C-5.73115109 3.59523599 -10.21017493 5.62964591 -17 6 C-14.43901251 2.89469113 -11.71373859 1.97968644 -7.9375 0.75 C-6.87402344 0.39421875 -5.81054688 0.0384375 -4.71484375 -0.328125 C-2 -1 -2 -1 0 0 Z " fill="#AB6C59" transform="translate(222,157)"/>
<path d="M0 0 C0.99 0.33 1.98 0.66 3 1 C1.52386015 2.50297876 0.04400843 4.00231285 -1.4375 5.5 C-2.26121094 6.3353125 -3.08492188 7.170625 -3.93359375 8.03125 C-6 10 -6 10 -7 10 C-7 8.35 -7 6.7 -7 5 C-5.68 5 -4.36 5 -3 5 C-2.690625 4.360625 -2.38125 3.72125 -2.0625 3.0625 C-1 1 -1 1 0 0 Z " fill="#567BB2" transform="translate(403,400)"/>
<path d="M0 0 C2.375 0.1875 2.375 0.1875 5 1 C6.3125 3.5625 6.3125 3.5625 7 6 C7.66 6 8.32 6 9 6 C8.67 7.32 8.34 8.64 8 10 C6.66370254 8.52351062 5.33103329 7.0437367 4 5.5625 C3.2575 4.73878906 2.515 3.91507812 1.75 3.06640625 C0 1 0 1 0 0 Z " fill="#567CB1" transform="translate(135,348)"/>
<path d="M0 0 C0.66 0.33 1.32 0.66 2 1 C0.58707905 5.8274799 -1.42974154 9.7162359 -4 14 C-4.66 12.68 -5.32 11.36 -6 10 C-5.01 10 -4.02 10 -3 10 C-3 8.35 -3 6.7 -3 5 C-2.01 4.67 -1.02 4.34 0 4 C0 2.68 0 1.36 0 0 Z " fill="#587CB3" transform="translate(383,316)"/>
<path d="M0 0 C0.66 0.33 1.32 0.66 2 1 C2.05395478 2.62463842 2.09277195 4.24978541 2.125 5.875 C2.14820313 6.77992188 2.17140625 7.68484375 2.1953125 8.6171875 C2 11 2 11 0 13 C-0.19397476 11.02145742 -0.38001321 9.0421352 -0.5625 7.0625 C-0.66691406 5.96035156 -0.77132813 4.85820312 -0.87890625 3.72265625 C-0.91886719 2.82417969 -0.95882813 1.92570313 -1 1 C-0.67 0.67 -0.34 0.34 0 0 Z " fill="#456FAE" transform="translate(420,213)"/>
<path d="M0 0 C5.63617433 0.46968119 10.21417541 1.90672313 15 5 C15.33 5.66 15.66 6.32 16 7 C13.03 6.505 13.03 6.505 10 6 C10 5.34 10 4.68 10 4 C8.35 4 6.7 4 5 4 C5 3.34 5 2.68 5 2 C3.35 1.67 1.7 1.34 0 1 C0 0.67 0 0.34 0 0 Z " fill="#AF6C57" transform="translate(278,157)"/>
<path d="M0 0 C2.625 0.375 2.625 0.375 5 1 C1.80009492 3.74277578 -1.00499382 5.6302836 -5 7 C-5.33 6.01 -5.66 5.02 -6 4 C-4.68 4 -3.36 4 -2 4 C-2 3.34 -2 2.68 -2 2 C-1.34 1.34 -0.68 0.68 0 0 Z " fill="#456CAE" transform="translate(362,431)"/>
<path d="M0 0 C-2.475 3.465 -2.475 3.465 -5 7 C-7.35953094 4.64046906 -7.49141413 3.22104383 -8 0 C-4.71303767 -0.79953138 -3.28976808 -1.09658936 0 0 Z " fill="#325FAB" transform="translate(56,327)"/>
<path d="M0 0 C0.66 0.33 1.32 0.66 2 1 C2 2.32 2 3.64 2 5 C2.66 5 3.32 5 4 5 C3.67 7.31 3.34 9.62 3 12 C0.52075165 8.28112748 -0.08484002 5.36460914 -1 1 C-0.67 0.67 -0.34 0.34 0 0 Z " fill="#486CAF" transform="translate(45,315)"/>
<path d="M0 0 C0.33 1.32 0.66 2.64 1 4 C0.34 4 -0.32 4 -1 4 C-1 5.32 -1 6.64 -1 8 C-1.66 8 -2.32 8 -3 8 C-3 8.99 -3 9.98 -3 11 C-3.99 11 -4.98 11 -6 11 C-4.74194623 6.49197399 -3.09592835 3.5087188 0 0 Z " fill="#284586" transform="translate(340,292)"/>
<path d="M0 0 C0.66 0 1.32 0 2 0 C4.14336161 3.4766338 4.21277626 6.21229195 4.125 10.25 C4.10695313 11.32765625 4.08890625 12.4053125 4.0703125 13.515625 C4.04710937 14.33546875 4.02390625 15.1553125 4 16 C3.67 16 3.34 16 3 16 C2.49595192 13.89679937 1.99689492 11.79240209 1.5 9.6875 C1.08234375 7.92986328 1.08234375 7.92986328 0.65625 6.13671875 C0 3 0 3 0 0 Z " fill="#E19E76" transform="translate(325,224)"/>
<path d="M0 0 C0.7425 0.391875 1.485 0.78375 2.25 1.1875 C2.25 2.1775 2.25 3.1675 2.25 4.1875 C1.54875 3.960625 0.8475 3.73375 0.125 3.5 C-3.62700275 3.09217361 -5.54431057 4.32372707 -8.75 6.1875 C-6.97538326 1.89884287 -4.96024066 -1.46552565 0 0 Z " fill="#80828C" transform="translate(215.75,221.8125)"/>
<path d="M0 0 C1.65 0 3.3 0 5 0 C2.07096942 2.33364352 -0.88568203 4.04960836 -4.25 5.6875 C-5.58804688 6.34298828 -5.58804688 6.34298828 -6.953125 7.01171875 C-7.96632812 7.50091797 -7.96632812 7.50091797 -9 8 C-8.67 6.68 -8.34 5.36 -8 4 C-6.68 4 -5.36 4 -4 4 C-4 3.34 -4 2.68 -4 2 C-2.68 2 -1.36 2 0 2 C0 1.34 0 0.68 0 0 Z " fill="#DE9A72" transform="translate(215,175)"/>
<path d="M0 0 C3.84685385 1.24762828 6.02929405 2.3870391 8 6 C7.67 6.99 7.34 7.98 7 9 C4.03595495 6.19195732 1.55500981 3.81684226 0 0 Z " fill="#4E76AD" transform="translate(79,382)"/>
<path d="M0 0 C0.66 0.33 1.32 0.66 2 1 C0.02 3.31 -1.96 5.62 -4 8 C-5.32 7.67 -6.64 7.34 -8 7 C-5.4837822 4.39391727 -2.94865641 2.10618315 0 0 Z " fill="#DB9166" transform="translate(297,313)"/>
<path d="M0 0 C-0.57492187 0.28617188 -1.14984375 0.57234375 -1.7421875 0.8671875 C-3.1891389 1.59316658 -4.63225808 2.3268655 -6.0703125 3.0703125 C-6.74835938 3.41835937 -7.42640625 3.76640625 -8.125 4.125 C-8.80820312 4.47820312 -9.49140625 4.83140625 -10.1953125 5.1953125 C-12 6 -12 6 -14 6 C-13 3 -13 3 -9.8125 1.3125 C-6.4652075 -0.01535157 -3.61508773 -0.26451861 0 0 Z " fill="#5E7FB4" transform="translate(346,153)"/>
<path d="M0 0 C8.415 1.485 8.415 1.485 17 3 C17 3.33 17 3.66 17 4 C12.71 4 8.42 4 4 4 C4 3.34 4 2.68 4 2 C2.68 1.67 1.36 1.34 0 1 C0 0.67 0 0.34 0 0 Z " fill="#344579" transform="translate(217,345)"/>
<path d="M0 0 C2.38672669 2.96283313 4.7353371 5.94270509 7 9 C6 11 6 11 3 13 C3.33 11.35 3.66 9.7 4 8 C3.34 8 2.68 8 2 8 C2 6.68 2 5.36 2 4 C1.34 4 0.68 4 0 4 C0 2.68 0 1.36 0 0 Z " fill="#37477B" transform="translate(163,300)"/>
<path d="M0 0 C2.88437779 1.29299694 4.87219421 2.65941363 7 5 C6.01 5.495 6.01 5.495 5 6 C2.375 5.0625 2.375 5.0625 0 4 C0 2.68 0 1.36 0 0 Z M0 5 C0 8 0 8 0 8 Z " fill="#3663A9" transform="translate(369,70)"/>
<path d="M0 0 C2.64 0.33 5.28 0.66 8 1 C0.5 6 0.5 6 -3 6 C-3 5.01 -3 4.02 -3 3 C-1.68 3 -0.36 3 1 3 C0.67 2.01 0.34 1.02 0 0 Z " fill="#4B71B0" transform="translate(336,444)"/>
<path d="M0 0 C0.99 0 1.98 0 3 0 C1.7874262 3.72433382 0.49140021 7.37802806 -1 11 C-1.33 11 -1.66 11 -2 11 C-2 8.36 -2 5.72 -2 3 C-1.34 3 -0.68 3 0 3 C0 2.01 0 1.02 0 0 Z " fill="#5077B2" transform="translate(447,333)"/>
<path d="M0 0 C0 1.65 0 3.3 0 5 C-4.95 6.485 -4.95 6.485 -10 8 C-2.21621622 0 -2.21621622 0 0 0 Z " fill="#2B4481" transform="translate(318,323)"/>
<path d="M0 0 C0.33 0 0.66 0 1 0 C1.36407767 4.49029126 1.36407767 4.49029126 -0.25 6.75 C-2.16858571 8.12041836 -3.69091968 8.6018827 -6 9 C-4.47300326 5.56425733 -2.44973747 2.84485642 0 0 Z " fill="#294480" transform="translate(329,309)"/>
<path d="M0 0 C3.63 0 7.26 0 11 0 C11 0.66 11 1.32 11 2 C7.37 2.33 3.74 2.66 0 3 C0 2.01 0 1.02 0 0 Z " fill="#E06B29" transform="translate(167,249)"/>
<path d="M0 0 C3.81684226 1.55500981 6.19195732 4.03595495 9 7 C8.01 7.495 8.01 7.495 7 8 C7 7.34 7 6.68 7 6 C6.21625 5.938125 5.4325 5.87625 4.625 5.8125 C3.75875 5.544375 2.8925 5.27625 2 5 C0.6875 2.4375 0.6875 2.4375 0 0 Z " fill="#5278B1" transform="translate(339,128)"/>
<path d="M0 0 C0.99 0.99 1.98 1.98 3 3 C2.34 4.65 1.68 6.3 1 8 C0.01 8 -0.98 8 -2 8 C-1.47731534 5.23723823 -0.89130413 2.6739124 0 0 Z " fill="#2C5BAD" transform="translate(427,126)"/>
<path d="M0 0 C0.66 0 1.32 0 2 0 C4.3992233 4.64849515 4.19957409 8.91086074 4 14 C2.30566082 10.9530371 1.50532888 8.17178534 0.875 4.75 C0.70742188 3.85796875 0.53984375 2.9659375 0.3671875 2.046875 C0.18542969 1.03367188 0.18542969 1.03367188 0 0 Z " fill="#5A7EB2" transform="translate(415,200)"/>
<path d="M0 0 C-2.64 1.98 -5.28 3.96 -8 6 C-7.67 4.02 -7.34 2.04 -7 0 C-4 -1 -4 -1 0 0 Z " fill="#DD9062" transform="translate(202,186)"/>
<path d="M0 0 C2.31 0.66 4.62 1.32 7 2 C7 3.32 7 4.64 7 6 C7.66 6.33 8.32 6.66 9 7 C6 7 6 7 4.39453125 5.46875 C3.87246094 4.8190625 3.35039062 4.169375 2.8125 3.5 C2.28269531 2.8503125 1.75289063 2.200625 1.20703125 1.53125 C0.80871094 1.0259375 0.41039062 0.520625 0 0 Z " fill="#4F74AC" transform="translate(366,122)"/>
<path d="M0 0 C0.99 0 1.98 0 3 0 C2.67 1.65 2.34 3.3 2 5 C-0.31 4.34 -2.62 3.68 -5 3 C-4.360625 2.690625 -3.72125 2.38125 -3.0625 2.0625 C-1.06389179 1.1654837 -1.06389179 1.1654837 0 0 Z " fill="#3A66AA" transform="translate(161,443)"/>
<path d="M0 0 C0.66 0.33 1.32 0.66 2 1 C1 3.375 1 3.375 -1 6 C-3.66921593 7.04768041 -6.15432483 7.48684546 -9 8 C-6.14723863 5.06799526 -3.34920216 2.35684596 0 0 Z " fill="#5A80B2" transform="translate(355,386)"/>
<path d="M0 0 C0.66 0.66 1.32 1.32 2 2 C1.34 3.98 0.68 5.96 0 8 C-4 3.25 -4 3.25 -4 1 C-2.125 0.375 -2.125 0.375 0 0 Z " fill="#3562A7" transform="translate(67,357)"/>
<path d="M0 0 C0.99 0 1.98 0 3 0 C1.73058503 3.91402949 0.48832306 5.79072873 -3 8 C-3.33 7.01 -3.66 6.02 -4 5 C-3.01 5 -2.02 5 -1 5 C-1.33 4.01 -1.66 3.02 -2 2 C-1.34 2 -0.68 2 0 2 C0 1.34 0 0.68 0 0 Z " fill="#4B71AB" transform="translate(364,344)"/>
<path d="M0 0 C0.66 0 1.32 0 2 0 C2.99 3.3 3.98 6.6 5 10 C4.34 9.67 3.68 9.34 3 9 C3 8.34 3 7.68 3 7 C2.01 6.67 1.02 6.34 0 6 C0 4.02 0 2.04 0 0 Z " fill="#4C71B1" transform="translate(84,302)"/>
<path d="M0 0 C1.36722938 3.69151932 0.5123038 5.47129113 -1 9 C-1.37593066 10.9924325 -1.71979545 12.9918674 -2 15 C-2.33 15 -2.66 15 -3 15 C-3.35050464 9.158256 -3.16727335 5.1468192 0 0 Z " fill="#2E437C" transform="translate(154,219)"/>
<path d="M0 0 C1.14926266 0.95421808 2.29430541 1.91352045 3.4375 2.875 C4.07558594 3.40867188 4.71367187 3.94234375 5.37109375 4.4921875 C7 6 7 6 8 8 C6.02 7.34 4.04 6.68 2 6 C2 5.34 2 4.68 2 4 C1.34 4 0.68 4 0 4 C0 2.68 0 1.36 0 0 Z " fill="#6488B7" transform="translate(354,140)"/>
<path d="M0 0 C0 3.16880694 -0.2058242 4.43689172 -2 7 C-4.625 7.75 -4.625 7.75 -7 8 C-6.02133662 6.85373678 -5.04205413 5.70800212 -4.0625 4.5625 C-3.51722656 3.92441406 -2.97195312 3.28632813 -2.41015625 2.62890625 C-1.63204305 1.73008851 -0.84063472 0.84063472 0 0 Z " fill="#486DAD" transform="translate(146,139)"/>
<path d="M0 0 C0.66 0.99 1.32 1.98 2 3 C1.01 3.33 0.02 3.66 -1 4 C-2.21869929 6.50447516 -2.21869929 6.50447516 -3 9 C-3.66 9 -4.32 9 -5 9 C-4.42647107 5.12867972 -2.51295648 2.91827204 0 0 Z " fill="#4E72AF" transform="translate(79,117)"/>
<path d="M0 0 C2.31 0.33 4.62 0.66 7 1 C3.78372163 3.14418558 1.80909895 3.67582137 -2 4 C-2.66 3.34 -3.32 2.68 -4 2 C-2.68 2 -1.36 2 0 2 C0 1.34 0 0.68 0 0 Z " fill="#4A71B0" transform="translate(315,453)"/>
<path d="M0 0 C0.33 0.66 0.66 1.32 1 2 C1.99 2 2.98 2 4 2 C4.33 3.65 4.66 5.3 5 7 C2.36 5.35 -0.28 3.7 -3 2 C-2.01 1.34 -1.02 0.68 0 0 Z " fill="#4B6EAC" transform="translate(129,426)"/>
<path d="M0 0 C2.475 0.99 2.475 0.99 5 2 C3.25 5.875 3.25 5.875 1 7 C1 6.01 1 5.02 1 4 C0.34 4 -0.32 4 -1 4 C-0.67 2.68 -0.34 1.36 0 0 Z " fill="#2D5FA5" transform="translate(387,410)"/>
<path d="M0 0 C0 0.66 0 1.32 0 2 C0.99 2.33 1.98 2.66 3 3 C1.741875 3.04125 0.48375 3.0825 -0.8125 3.125 C-1.52019531 3.14820313 -2.22789062 3.17140625 -2.95703125 3.1953125 C-5 3 -5 3 -8 1 C-5.29120665 -0.35439668 -2.99066732 -0.06501451 0 0 Z " fill="#1A4792" transform="translate(230,396)"/>
<path d="M0 0 C2.92540704 0.62687294 5.4835249 1.35127493 8 3 C8.75 5.125 8.75 5.125 9 7 C5.18315774 5.44499019 2.80804268 2.96404505 0 0 Z " fill="#6285BA" transform="translate(152,365)"/>
<path d="M0 0 C0.33 0.99 0.66 1.98 1 3 C-0.9375 6.1875 -0.9375 6.1875 -3 9 C-3.99 8.67 -4.98 8.34 -6 8 C-4.02 5.36 -2.04 2.72 0 0 Z " fill="#577EAF" transform="translate(391,349)"/>
<path d="M0 0 C2.49361571 1.20381448 4.68143083 2.45428722 7 4 C8.65549531 4.38499891 10.3222433 4.72793135 12 5 C11.67 5.99 11.34 6.98 11 8 C6.40378078 6.5129879 3.53027653 4.20187872 0 1 C0 0.67 0 0.34 0 0 Z " fill="#A5685B" transform="translate(188,328)"/>
<path d="M0 0 C-0.75 2.9375 -0.75 2.9375 -2 6 C-4.125 6.875 -4.125 6.875 -6 7 C-5.37162381 3.35541809 -4.14650034 0 0 0 Z " fill="#384054" transform="translate(291,200)"/>
<path d="M0 0 C2.56616632 3.84924948 2.55097676 6.4349304 3 11 C2.34 11 1.68 11 1 11 C0.8046875 8.94921875 0.609375 6.8984375 0.4140625 4.84765625 C0.27742188 4.23792969 0.14078125 3.62820312 0 3 C-0.66 2.67 -1.32 2.34 -2 2 C-1.34 2 -0.68 2 0 2 C0 1.34 0 0.68 0 0 Z " fill="#4A74B0" transform="translate(457,189)"/>
<path d="M0 0 C1.32 0.66 2.64 1.32 4 2 C2.02 4.31 0.04 6.62 -2 9 C-2.33 7.68 -2.66 6.36 -3 5 C-2.34 5 -1.68 5 -1 5 C-0.67 3.35 -0.34 1.7 0 0 Z " fill="#E1966D" transform="translate(189,192)"/>
<path d="M0 0 C5.99725275 2.10714286 5.99725275 2.10714286 8 5 C7.5703125 7.1015625 7.5703125 7.1015625 7 9 C5.83037314 7.69013727 4.66437056 6.3770374 3.5 5.0625 C2.8503125 4.33160156 2.200625 3.60070312 1.53125 2.84765625 C0 1 0 1 0 0 Z " fill="#567DB5" transform="translate(374,130)"/>
<path d="M0 0 C3.77545388 1.09068668 6.47043472 1.9083091 9 5 C6.36 4.67 3.72 4.34 1 4 C0.67 2.68 0.34 1.36 0 0 Z " fill="#5C7EB6" transform="translate(320,116)"/>
<path d="M0 0 C0 3.57575896 -1.08840607 5.05295935 -3 8 C-4.32 7.67 -5.64 7.34 -7 7 C-4.69 4.69 -2.38 2.38 0 0 Z " fill="#5578B4" transform="translate(92,102)"/>
<path d="M0 0 C1.24546405 2.49092811 0.7767578 3.41080733 0 6 C-2.31 6.66 -4.62 7.32 -7 8 C-6.02133662 6.85373678 -5.04205413 5.70800212 -4.0625 4.5625 C-3.51722656 3.92441406 -2.97195313 3.28632813 -2.41015625 2.62890625 C-1.63204305 1.73008851 -0.84063472 0.84063472 0 0 Z " fill="#DEA885" transform="translate(309,302)"/>
<path d="M0 0 C3.39417765 3.12621626 5.6062718 5.56541027 7 10 C6.01 10 5.02 10 4 10 C4 8.68 4 7.36 4 6 C3.34 6 2.68 6 2 6 C1.34 4.02 0.68 2.04 0 0 Z " fill="#B46E54" transform="translate(327,191)"/>
<path d="M0 0 C2.66666667 0.66666667 5.33333333 1.33333333 8 2 C4.04 3.98 4.04 3.98 0 6 C0 4.02 0 2.04 0 0 Z " fill="#5079B2" transform="translate(314,164)"/>
<path d="M0 0 C0.66 0 1.32 0 2 0 C5 4.38461538 5 4.38461538 5 7 C3.68 6.67 2.36 6.34 1 6 C0.67 4.02 0.34 2.04 0 0 Z " fill="#4269A8" transform="translate(437,144)"/>
<path d="M0 0 C1.98 0.66 3.96 1.32 6 2 C6 2.66 6 3.32 6 4 C6.99 4.33 7.98 4.66 9 5 C8.34 5.66 7.68 6.32 7 7 C5.83040013 6.02433888 4.66438823 5.044375 3.5 4.0625 C2.8503125 3.51722656 2.200625 2.97195312 1.53125 2.41015625 C1.0259375 1.94480469 0.520625 1.47945313 0 1 C0 0.67 0 0.34 0 0 Z " fill="#5073AF" transform="translate(358,115)"/>
<path d="M0 0 C2.97 1.98 2.97 1.98 6 4 C5.67 4.99 5.34 5.98 5 7 C3.68 6.67 2.36 6.34 1 6 C0.67 4.02 0.34 2.04 0 0 Z " fill="#3C67A7" transform="translate(382,79)"/>
<path d="M0 0 C0.66 0.33 1.32 0.66 2 1 C1.34 2.65 0.68 4.3 0 6 C-2 6 -4 6 -6 6 C-4 4 -2 2 0 0 Z " fill="#4D74AF" transform="translate(118,78)"/>
<path d="M0 0 C3.55780196 0.60990891 6.6828589 1.5783681 10 3 C9.01 3.66 8.02 4.32 7 5 C7 4.34 7 3.68 7 3 C6.01 3.33 5.02 3.66 4 4 C1.8125 3.5625 1.8125 3.5625 0 3 C0 2.01 0 1.02 0 0 Z " fill="#5375B3" transform="translate(321,46)"/>
<path d="M0 0 C3.99500618 1.3697164 6.80009492 3.25722422 10 6 C6.38238619 5.67112602 4.44334967 5.37334709 1.625 3 C0 1 0 1 0 0 Z " fill="#5B7FB1" transform="translate(159,397)"/>
<path d="M0 0 C4.455 2.97 4.455 2.97 9 6 C7 7 7 7 3.875 6.0625 C2.92625 5.711875 1.9775 5.36125 1 5 C0.67 3.35 0.34 1.7 0 0 Z " fill="#5B7FB3" transform="translate(141,384)"/>
<path d="M0 0 C0.66 0 1.32 0 2 0 C1.8125 1.875 1.8125 1.875 1 4 C-1.5625 5.25 -1.5625 5.25 -4 6 C-4.33 5.01 -4.66 4.02 -5 3 C-3.68 3 -2.36 3 -1 3 C-0.67 2.01 -0.34 1.02 0 0 Z " fill="#CF6E3F" transform="translate(308,326)"/>
<path d="M0 0 C0.8125 1.6875 0.8125 1.6875 1 4 C-1.4375 6.75 -1.4375 6.75 -4 9 C-4 5.00095031 -2.27413033 3.19799578 0 0 Z " fill="#E1A07C" transform="translate(318,290)"/>
<path d="M0 0 C0.66 0.33 1.32 0.66 2 1 C1.67 2.98 1.34 4.96 1 7 C-0.32 6.01 -1.64 5.02 -3 4 C-2.67 3.01 -2.34 2.02 -2 1 C-1.34 0.67 -0.68 0.34 0 0 Z " fill="#808491" transform="translate(206,228)"/>
<path d="M0 0 C0.928125 0.2784375 0.928125 0.2784375 1.875 0.5625 C4.04160178 1.23686176 4.04160178 1.23686176 6 0 C5.67 1.65 5.34 3.3 5 5 C4.01 5 3.02 5 2 5 C1.34 3.35 0.68 1.7 0 0 Z " fill="#305FA4" transform="translate(393,153)"/>
<path d="M0 0 C0.66 0.33 1.32 0.66 2 1 C-1.32307692 4.93846154 -1.32307692 4.93846154 -4.75 5.25 C-5.4925 5.1675 -6.235 5.085 -7 5 C-2.25 1.125 -2.25 1.125 0 0 Z " fill="#6A89BD" transform="translate(181,114)"/>
<path d="M0 0 C2.5 2.3125 2.5 2.3125 5 5 C5 5.99 5 6.98 5 8 C4.67 7.34 4.34 6.68 4 6 C3.01 6 2.02 6 1 6 C0.67 4.02 0.34 2.04 0 0 Z " fill="#4F75AF" transform="translate(411,106)"/>
<path d="M0 0 C-2.96687001 1.64826111 -5.65626525 2.44271087 -9 3 C-9.33 2.01 -9.66 1.02 -10 0 C-6.30458414 -0.95024979 -3.69541586 -0.95024979 0 0 Z " fill="#4D6FB3" transform="translate(206,83)"/>
<path d="M0 0 C3.63 0.33 7.26 0.66 11 1 C11 1.33 11 1.66 11 2 C6.38 2.33 1.76 2.66 -3 3 C-2.01 2.67 -1.02 2.34 0 2 C0 1.34 0 0.68 0 0 Z " fill="#6E91C2" transform="translate(224,77)"/>
<path d="M0 0 C2.97 1.65 5.94 3.3 9 5 C8.01 5.66 7.02 6.32 6 7 C5.67 6.01 5.34 5.02 5 4 C4.01 4.33 3.02 4.66 2 5 C1.34 3.35 0.68 1.7 0 0 Z " fill="#4F73AD" transform="translate(150,391)"/>
<path d="M0 0 C0.99 0.33 1.98 0.66 3 1 C2.67 2.32 2.34 3.64 2 5 C1.01 5 0.02 5 -1 5 C-1.33 3.68 -1.66 2.36 -2 1 C-1.34 0.67 -0.68 0.34 0 0 Z " fill="#2C5CA4" transform="translate(413,386)"/>
<path d="M0 0 C3.65316671 1.24976756 4.78065836 1.67098753 7 5 C6.01 5.495 6.01 5.495 5 6 C5 5.34 5 4.68 5 4 C3.35 4 1.7 4 0 4 C0 2.68 0 1.36 0 0 Z " fill="#4971AB" transform="translate(134,379)"/>
<path d="M0 0 C0.99 0 1.98 0 3 0 C1.70700306 2.88437779 0.34058637 4.87219421 -2 7 C-2.33 5.68 -2.66 4.36 -3 3 C-2.01 2.67 -1.02 2.34 0 2 C0 1.34 0 0.68 0 0 Z " fill="#436EAD" transform="translate(421,378)"/>
<path d="M0 0 C3.82946843 1.45255699 5.12050295 3.42895561 7 7 C6.01 7 5.02 7 4 7 C0 2.65714286 0 2.65714286 0 0 Z " fill="#5479AE" transform="translate(73,374)"/>
<path d="M0 0 C2.5 2.3125 2.5 2.3125 5 5 C5 5.99 5 6.98 5 8 C4.38125 7.34 3.7625 6.68 3.125 6 C1.24362573 3.7715451 1.24362573 3.7715451 -1 4 C-0.67 2.68 -0.34 1.36 0 0 Z " fill="#4A72AF" transform="translate(115,358)"/>
<path d="M0 0 C2.31 0 4.62 0 7 0 C4.14521674 1.90318884 2.58058692 2.4619099 -0.6875 3.125 C-1.49574219 3.29257812 -2.30398438 3.46015625 -3.13671875 3.6328125 C-3.75160156 3.75398438 -4.36648438 3.87515625 -5 4 C-4.67 3.34 -4.34 2.68 -4 2 C-2.68 2 -1.36 2 0 2 C0 1.34 0 0.68 0 0 Z " fill="#B87055" transform="translate(277,343)"/>
<path d="M0 0 C3.875 1.875 3.875 1.875 5 3 C5.04063832 4.66617115 5.042721 6.33388095 5 8 C2.27573689 5.64722731 1.1858237 3.37503669 0 0 Z " fill="#5979B7" transform="translate(120,327)"/>
<path d="M0 0 C0.6875 1.625 0.6875 1.625 1 4 C-0.4375 7.25 -0.4375 7.25 -2 10 C-2.66 10 -3.32 10 -4 10 C-2.8905928 6.51329166 -1.73662334 3.22515763 0 0 Z " fill="#4970B1" transform="translate(406,323)"/>
<path d="M0 0 C1.485 0.99 1.485 0.99 3 2 C1.25 7.75 1.25 7.75 -1 10 C-0.67 6.7 -0.34 3.4 0 0 Z " fill="#5073B1" transform="translate(386,307)"/>
<path d="M0 0 C4.875 1.75 4.875 1.75 6 4 C4.02 4.33 2.04 4.66 0 5 C0 3.35 0 1.7 0 0 Z " fill="#5E6575" transform="translate(227,232)"/>
<path d="M0 0 C1.32 0.33 2.64 0.66 4 1 C3.67 3.31 3.34 5.62 3 8 C0.4345406 5.4345406 0.45953913 3.52313332 0 0 Z " fill="#3A64AB" transform="translate(408,179)"/>
<path d="M0 0 C1.65 0 3.3 0 5 0 C5 0.66 5 1.32 5 2 C3.68 2 2.36 2 1 2 C0.67 3.65 0.34 5.3 0 7 C-0.93423645 3.98968256 -1.04449911 3.13349732 0 0 Z " fill="#DB773C" transform="translate(299,174)"/>
<path d="M0 0 C2.33944736 0.28730055 4.6739143 0.61936779 7 1 C4.68143083 2.54571278 2.49361571 3.79618552 0 5 C-0.5625 3.0625 -0.5625 3.0625 -1 1 C-0.67 0.67 -0.34 0.34 0 0 Z " fill="#194391" transform="translate(196,162)"/>
<path d="M0 0 C1.32 0 2.64 0 4 0 C3.50168276 3.68754757 2.89932357 5.60490662 0 8 C-0.33 6.68 -0.66 5.36 -1 4 C-0.01 4 0.98 4 2 4 C1.34 2.68 0.68 1.36 0 0 Z " fill="#3D66A8" transform="translate(100,156)"/>
<path d="M0 0 C-0.625 1.9375 -0.625 1.9375 -2 4 C-5.125 4.75 -5.125 4.75 -8 5 C-3.16129032 0 -3.16129032 0 0 0 Z " fill="#5C82B6" transform="translate(174,119)"/>
<path d="M0 0 C0 0.66 0 1.32 0 2 C-4.455 2.495 -4.455 2.495 -9 3 C-7.14340032 -0.71319936 -3.69365381 -0.09982848 0 0 Z " fill="#4F74AB" transform="translate(197,109)"/>
<path d="M0 0 C-6 4 -6 4 -8.1875 3.625 C-8.785625 3.41875 -9.38375 3.2125 -10 3 C-3.375 -1.125 -3.375 -1.125 0 0 Z " fill="#6589B7" transform="translate(156,57)"/>
<path d="M0 0 C2.64 0.33 5.28 0.66 8 1 C8 1.99 8 2.98 8 4 C5.64828869 3.40138258 3.3140622 2.73075648 1 2 C0.67 1.34 0.34 0.68 0 0 Z " fill="#5A7BB2" transform="translate(177,382)"/>
<path d="M0 0 C3.057952 1.73559438 5.63379989 3.38472619 8 6 C6.02 6 4.04 6 2 6 C2 4.68 2 3.36 2 2 C1.34 2 0.68 2 0 2 C0 1.34 0 0.68 0 0 Z " fill="#284282" transform="translate(185,327)"/>
<path d="M0 0 C0.66 0.33 1.32 0.66 2 1 C1.67 1.99 1.34 2.98 1 4 C-1.64 4.33 -4.28 4.66 -7 5 C-4.88437775 2.67281553 -2.94982021 1.14186589 0 0 Z " fill="#E4A785" transform="translate(288,319)"/>
<path d="M0 0 C1.32 0.33 2.64 0.66 4 1 C4.33 2.65 4.66 4.3 5 6 C5.66 6 6.32 6 7 6 C6.67 6.66 6.34 7.32 6 8 C1.125 3.375 1.125 3.375 0 0 Z " fill="#AE6C56" transform="translate(173,313)"/>
<path d="M0 0 C0.66 0 1.32 0 2 0 C3.60725635 3.21451269 3.05748185 6.43612536 3 10 C0.70366176 6.55549263 0.45983515 4.06187717 0 0 Z " fill="#5879B7" transform="translate(41,305)"/>
<path d="M0 0 C0.33 0 0.66 0 1 0 C0.67 3.96 0.34 7.92 0 12 C-0.33 12 -0.66 12 -1 12 C-1.33 8.7 -1.66 5.4 -2 2 C-1.34 2 -0.68 2 0 2 C0 1.34 0 0.68 0 0 Z " fill="#6689BC" transform="translate(399,267)"/>
<path d="M0 0 C0.99 0 1.98 0 3 0 C3 2.31 3 4.62 3 7 C1.68 6.01 0.36 5.02 -1 4 C-0.67 2.68 -0.34 1.36 0 0 Z " fill="#585E6E" transform="translate(232,259)"/>
<path d="M0 0 C0.99 0.33 1.98 0.66 3 1 C3.625 3.875 3.625 3.875 4 7 C3.34 7.66 2.68 8.32 2 9 C1.34 6.03 0.68 3.06 0 0 Z " fill="#5479B0" transform="translate(411,187)"/>
<path d="M0 0 C-1.24976756 3.65316671 -1.67098753 4.78065836 -5 7 C-5.33 6.01 -5.66 5.02 -6 4 C-2.25 0 -2.25 0 0 0 Z " fill="#6E7382" transform="translate(321,180)"/>
<path d="M0 0 C-0.33 1.65 -0.66 3.3 -1 5 C-2.32 4.67 -3.64 4.34 -5 4 C-5 3.01 -5 2.02 -5 1 C-2 0 -2 0 0 0 Z " fill="#4D5565" transform="translate(327,171)"/>
<path d="M0 0 C0 0.99 0 1.98 0 3 C-2.97 3 -5.94 3 -9 3 C-5.73209435 0.82139623 -3.91954654 0 0 0 Z " fill="#4870AD" transform="translate(189,43)"/>
<path d="M0 0 C1.32 0 2.64 0 4 0 C3.34 1.65 2.68 3.3 2 5 C0.68 4.01 -0.64 3.02 -2 2 C-1.34 1.34 -0.68 0.68 0 0 Z " fill="#DD8855" transform="translate(301,310)"/>
<path d="M0 0 C0.33 0 0.66 0 1 0 C0.67 2.31 0.34 4.62 0 7 C-0.99 6.67 -1.98 6.34 -3 6 C-1.125 1.125 -1.125 1.125 0 0 Z " fill="#BB6D48" transform="translate(168,194)"/>
<path d="M0 0 C0.66 0.33 1.32 0.66 2 1 C1.45276317 4.37462715 0.9451 6.08235 -1 9 C-1.09765625 2.84765625 -1.09765625 2.84765625 -1 1 C-0.67 0.67 -0.34 0.34 0 0 Z " fill="#4C6FAC" transform="translate(87,186)"/>
<path d="M0 0 C1.70884005 1.62339805 3.37446717 3.29319053 5 5 C5 5.66 5 6.32 5 7 C3.68 7 2.36 7 1 7 C0.67 4.69 0.34 2.38 0 0 Z " fill="#6989BB" transform="translate(370,158)"/>
<path d="M0 0 C3.04470873 1.52235436 4.20270948 4.18424486 6 7 C5.01 7 4.02 7 3 7 C0.64276511 4.46815512 0 3.52809907 0 0 Z " fill="#567DB4" transform="translate(388,145)"/>
</svg>
